<?xml version="1.0" encoding="utf-8"?>
<!-- Generator: Adobe Illustrator 16.0.0, SVG Export Plug-In . SVG Version: 6.00 Build 0)  -->
<!DOCTYPE svg PUBLIC "-//W3C//DTD SVG 1.1//EN" "http://www.w3.org/Graphics/SVG/1.1/DTD/svg11.dtd">
<svg version="1.1" id="Capa_1" xmlns="http://www.w3.org/2000/svg" xmlns:xlink="http://www.w3.org/1999/xlink" x="0px" y="0px"
	 width="300px" height="200px" viewBox="0 0 300 200" enable-background="new 0 0 300 200" xml:space="preserve">
<g>
	<linearGradient id="SVGID_1_" gradientUnits="userSpaceOnUse" x1="113.6895" y1="24.2363" x2="175.3545" y2="24.2363">
		<stop  offset="0" style="stop-color:#FFFFFF"/>
		<stop  offset="0.0036" style="stop-color:#FCFCFC"/>
		<stop  offset="0.0441" style="stop-color:#D6D6D5"/>
		<stop  offset="0.0873" style="stop-color:#B1B1B0"/>
		<stop  offset="0.1323" style="stop-color:#8F8F8E"/>
		<stop  offset="0.1794" style="stop-color:#6F6F6E"/>
		<stop  offset="0.2293" style="stop-color:#555454"/>
		<stop  offset="0.2829" style="stop-color:#3E3E3D"/>
		<stop  offset="0.342" style="stop-color:#252524"/>
		<stop  offset="0.4109" style="stop-color:#0B0B0B"/>
		<stop  offset="0.5131" style="stop-color:#000000"/>
		<stop  offset="0.6065" style="stop-color:#0B0B0B"/>
		<stop  offset="0.6696" style="stop-color:#252524"/>
		<stop  offset="0.7237" style="stop-color:#3E3E3D"/>
		<stop  offset="0.7728" style="stop-color:#555454"/>
		<stop  offset="0.8185" style="stop-color:#6F6F6F"/>
		<stop  offset="0.8617" style="stop-color:#8F8F8E"/>
		<stop  offset="0.9029" style="stop-color:#B1B1B0"/>
		<stop  offset="0.9416" style="stop-color:#D5D5D4"/>
		<stop  offset="0.9791" style="stop-color:#FBFBFB"/>
	</linearGradient>
	<path fill-rule="evenodd" clip-rule="evenodd" fill="url(#SVGID_1_)" d="M151.907,2.75c4.694,1.053,9.52,1.794,14.056,3.228
		c7.996,2.526,9.315,4.469,9.316,11.711c0,5.008-0.197,10.023,0.062,15.022c0.216,4.191-2.063,6.813-6.055,8.49
		c-10.032,4.217-20.738,5.278-31.602,4.034c-5.913-0.678-11.766-2.224-17.435-3.918c-4.588-1.371-6.791-4.501-6.541-9.028
		c0.303-5.426,0.29-10.881,0.003-16.309c-0.229-4.355,1.935-7.35,6.272-8.755c5.587-1.81,11.434-3.011,17.168-4.475
		C142.07,2.75,146.989,2.75,151.907,2.75z M144.706,22.659c7.754-1.703,15.331-3.166,22.735-5.13
		c1.875-0.497,4.351-2.54,4.432-3.964c0.074-1.318-2.394-3.356-4.247-4.051c-15.268-5.718-30.703-5.678-46.005-0.102
		c-1.895,0.69-3.197,2.624-4.772,3.981c1.651,1.46,3.029,3.716,5.007,4.239C129.259,19.593,136.862,20.985,144.706,22.659z"/>
	<linearGradient id="SVGID_2_" gradientUnits="userSpaceOnUse" x1="52.4595" y1="181.1641" x2="113.8022" y2="181.1641">
		<stop  offset="0" style="stop-color:#FFFFFF"/>
		<stop  offset="0.0036" style="stop-color:#FCFCFC"/>
		<stop  offset="0.0441" style="stop-color:#D6D6D5"/>
		<stop  offset="0.0873" style="stop-color:#B1B1B0"/>
		<stop  offset="0.1323" style="stop-color:#8F8F8E"/>
		<stop  offset="0.1794" style="stop-color:#6F6F6E"/>
		<stop  offset="0.2293" style="stop-color:#555454"/>
		<stop  offset="0.2829" style="stop-color:#3E3E3D"/>
		<stop  offset="0.342" style="stop-color:#252524"/>
		<stop  offset="0.4109" style="stop-color:#0B0B0B"/>
		<stop  offset="0.5131" style="stop-color:#000000"/>
		<stop  offset="0.6065" style="stop-color:#0B0B0B"/>
		<stop  offset="0.6696" style="stop-color:#252524"/>
		<stop  offset="0.7237" style="stop-color:#3E3E3D"/>
		<stop  offset="0.7728" style="stop-color:#555454"/>
		<stop  offset="0.8185" style="stop-color:#6F6F6F"/>
		<stop  offset="0.8617" style="stop-color:#8F8F8E"/>
		<stop  offset="0.9029" style="stop-color:#B1B1B0"/>
		<stop  offset="0.9416" style="stop-color:#D5D5D4"/>
		<stop  offset="0.9791" style="stop-color:#FBFBFB"/>
	</linearGradient>
	<path fill-rule="evenodd" clip-rule="evenodd" fill="url(#SVGID_2_)" d="M76.165,196c-5.016-1.112-10.181-1.871-15.012-3.427
		c-7.528-2.42-8.688-4.275-8.693-11.128c-0.001-4.831,0-9.662,0-15.065c9.133,6.984,19.744,8.111,30.579,8.093
		c10.822-0.018,21.475-1.015,30.573-8.144c0,6.739,0.583,12.916-0.29,18.935c-0.342,2.349-3.488,5.271-6.175,6.294
		c-5.441,2.074-11.442,3.027-17.211,4.442C85.346,196,80.754,196,76.165,196z"/>
	<linearGradient id="SVGID_3_" gradientUnits="userSpaceOnUse" x1="175.2373" y1="181.1719" x2="236.6357" y2="181.1719">
		<stop  offset="0" style="stop-color:#FFFFFF"/>
		<stop  offset="0.0036" style="stop-color:#FCFCFC"/>
		<stop  offset="0.0441" style="stop-color:#D6D6D5"/>
		<stop  offset="0.0873" style="stop-color:#B1B1B0"/>
		<stop  offset="0.1323" style="stop-color:#8F8F8E"/>
		<stop  offset="0.1794" style="stop-color:#6F6F6E"/>
		<stop  offset="0.2293" style="stop-color:#555454"/>
		<stop  offset="0.2829" style="stop-color:#3E3E3D"/>
		<stop  offset="0.342" style="stop-color:#252524"/>
		<stop  offset="0.4109" style="stop-color:#0B0B0B"/>
		<stop  offset="0.5131" style="stop-color:#000000"/>
		<stop  offset="0.6065" style="stop-color:#0B0B0B"/>
		<stop  offset="0.6696" style="stop-color:#252524"/>
		<stop  offset="0.7237" style="stop-color:#3E3E3D"/>
		<stop  offset="0.7728" style="stop-color:#555454"/>
		<stop  offset="0.8185" style="stop-color:#6F6F6F"/>
		<stop  offset="0.8617" style="stop-color:#8F8F8E"/>
		<stop  offset="0.9029" style="stop-color:#B1B1B0"/>
		<stop  offset="0.9416" style="stop-color:#D5D5D4"/>
		<stop  offset="0.9791" style="stop-color:#FBFBFB"/>
	</linearGradient>
	<path fill-rule="evenodd" clip-rule="evenodd" fill="url(#SVGID_3_)" d="M199.123,196c-5.331-1.221-10.767-2.174-15.965-3.735
		c-5.431-1.627-8.457-4.814-7.843-10.403c0.54-4.923,0.114-9.927,0.114-15.096c17.488,10.502,46.46,10.438,61.05-0.422
		c0,6.923,0.5,13.416-0.29,19.791c-0.254,2.038-3.558,4.549-6.11,5.452c-5.505,1.949-11.431,2.997-17.185,4.413
		C208.304,196,203.715,196,199.123,196z"/>
	<linearGradient id="SVGID_4_" gradientUnits="userSpaceOnUse" x1="144.5288" y1="142.2744" x2="144.5288" y2="43.1641">
		<stop  offset="0" style="stop-color:#FFFFFF"/>
		<stop  offset="0.0036" style="stop-color:#FCFCFC"/>
		<stop  offset="0.0441" style="stop-color:#D6D6D5"/>
		<stop  offset="0.0873" style="stop-color:#B1B1B0"/>
		<stop  offset="0.1323" style="stop-color:#8F8F8E"/>
		<stop  offset="0.1794" style="stop-color:#6F6F6E"/>
		<stop  offset="0.2293" style="stop-color:#555454"/>
		<stop  offset="0.2829" style="stop-color:#3E3E3D"/>
		<stop  offset="0.342" style="stop-color:#252524"/>
		<stop  offset="0.4109" style="stop-color:#0B0B0B"/>
		<stop  offset="0.5131" style="stop-color:#000000"/>
		<stop  offset="0.6065" style="stop-color:#0B0B0B"/>
		<stop  offset="0.6696" style="stop-color:#252524"/>
		<stop  offset="0.7237" style="stop-color:#3E3E3D"/>
		<stop  offset="0.7728" style="stop-color:#555454"/>
		<stop  offset="0.8185" style="stop-color:#6F6F6F"/>
		<stop  offset="0.8617" style="stop-color:#8F8F8E"/>
		<stop  offset="0.9029" style="stop-color:#B1B1B0"/>
		<stop  offset="0.9416" style="stop-color:#D5D5D4"/>
		<stop  offset="0.9791" style="stop-color:#FBFBFB"/>
	</linearGradient>
	<path fill-rule="evenodd" clip-rule="evenodd" fill="url(#SVGID_4_)" d="M88.082,98.823c6.506,1.584,12.68,2.801,18.609,4.624
		c4.876,1.497,7.48,4.543,7.051,9.572c-0.484,5.695,0.281,11.476-0.301,17.154c-0.24,2.333-1.943,5.492-4.091,6.541
		c-4.468,2.18-9.554,3.822-14.605,4.573c-11.084,1.651-22.221,1.4-32.948-2.059c-7.912-2.553-9.346-4.491-9.348-11.682
		c-0.001-5.152,0.197-10.312-0.065-15.453c-0.196-3.82,1.569-6.627,5.386-7.85c5.625-1.804,11.547-2.882,17.262-4.493
		c1.802-0.508,3.952-1.396,4.899-2.69c10.823-14.815,21.571-29.673,31.991-44.704c1.729-2.495,1.784-5.874,2.653-8.986
		c8.175,6.47,18.782,7.606,29.632,7.608c10.89,0.001,21.612-0.9,30.462-7.815c0.733,12.386,11.34,20.354,17.531,30.258
		c5.009,8.011,10.876,15.628,16.674,23.238c1.129,1.482,3.549,2.484,5.61,3.095c5.534,1.639,11.308,2.687,16.773,4.472
		c3.805,1.24,5.583,4.008,5.421,7.833c-0.255,6.003-0.196,12.023-0.018,18.03c0.097,3.265-1.316,5.75-4.577,6.952
		c-4.627,1.704-9.379,3.507-14.278,4.231c-10.917,1.611-21.878,1.435-32.484-1.894c-8.486-2.665-9.892-4.474-9.892-12.172
		c-0.001-5.01,0.241-10.03-0.076-15.024c-0.259-4.046,1.709-6.824,5.701-8.104c6.353-2.035,12.928-3.549,19.809-5.39
		c-8.229-11.518-16.759-23.457-25.267-35.367c-10.292,9.396-23.428,9.484-36.452,8.883c-9.271-0.428-18.675-1.592-25.478-9.123
		C105.065,75.099,96.479,87.092,88.082,98.823z M83.055,119.2c7.827-1.666,15.43-3.083,22.864-5.008
		c1.84-0.477,4.26-2.552,4.334-3.974c0.07-1.345-2.287-3.44-4.102-4.103c-15.326-5.604-30.814-5.587-46.147-0.024
		c-1.825,0.664-4.188,2.746-4.132,4.101c0.059,1.42,2.475,3.521,4.313,3.997C67.617,116.116,75.224,117.533,83.055,119.2z
		 M205.965,119.204c7.845-1.67,15.451-3.087,22.885-5.012c1.843-0.478,4.264-2.559,4.337-3.982c0.068-1.35-2.285-3.452-4.102-4.113
		c-15.333-5.566-30.823-5.583-46.157-0.001c-1.82,0.664-4.179,2.743-4.119,4.092c0.061,1.417,2.475,3.504,4.311,3.984
		C190.549,116.104,198.152,117.53,205.965,119.204z"/>
	<linearGradient id="SVGID_5_" gradientUnits="userSpaceOnUse" x1="52.293" y1="154.3184" x2="236.5879" y2="154.3184">
		<stop  offset="0" style="stop-color:#FFFFFF"/>
		<stop  offset="0.0036" style="stop-color:#FCFCFC"/>
		<stop  offset="0.0441" style="stop-color:#D6D6D5"/>
		<stop  offset="0.0873" style="stop-color:#B1B1B0"/>
		<stop  offset="0.1323" style="stop-color:#8F8F8E"/>
		<stop  offset="0.1794" style="stop-color:#6F6F6E"/>
		<stop  offset="0.2293" style="stop-color:#555454"/>
		<stop  offset="0.2829" style="stop-color:#3E3E3D"/>
		<stop  offset="0.342" style="stop-color:#252524"/>
		<stop  offset="0.4109" style="stop-color:#0B0B0B"/>
		<stop  offset="0.5131" style="stop-color:#000000"/>
		<stop  offset="0.6065" style="stop-color:#0B0B0B"/>
		<stop  offset="0.6696" style="stop-color:#252524"/>
		<stop  offset="0.7237" style="stop-color:#3E3E3D"/>
		<stop  offset="0.7728" style="stop-color:#555454"/>
		<stop  offset="0.8185" style="stop-color:#6F6F6F"/>
		<stop  offset="0.8617" style="stop-color:#8F8F8E"/>
		<stop  offset="0.9029" style="stop-color:#B1B1B0"/>
		<stop  offset="0.9416" style="stop-color:#D5D5D4"/>
		<stop  offset="0.9791" style="stop-color:#FBFBFB"/>
	</linearGradient>
	<path fill-rule="evenodd" clip-rule="evenodd" fill="url(#SVGID_5_)" d="M236.58,139.45c0,6.662,0.021,12.65-0.009,18.638
		c-0.018,3.791-3.15,5.941-6.49,6.775c-7.317,1.827-14.82,3.547-22.364,4.109c-8.64,0.645-17.312-0.529-25.352-3.821
		c-4.009-1.641-7.374-3.8-7.116-8.442c-20.479,0-40.742,0-61.329,0c0.098,4.806-3.476,7.195-7.911,8.683
		c-15.286,5.12-30.65,5.099-45.941-0.004c-5.198-1.735-8.22-4.702-7.721-10.102c0.469-5.051,0.102-10.16,0.102-15.639
		c14.885,11.64,51.007,9.752,60.958-0.233c0,3.48,0,6.52,0,9.88c20.827,0,41.179,0,61.99,0c0-3.176,0-6.234,0-9.588
		C191.526,150.438,221.669,150.428,236.58,139.45z"/>
	<linearGradient id="SVGID_6_" gradientUnits="userSpaceOnUse" x1="113.7046" y1="84.5083" x2="174.8701" y2="84.5083">
		<stop  offset="0" style="stop-color:#FFFFFF"/>
		<stop  offset="0.0036" style="stop-color:#FCFCFC"/>
		<stop  offset="0.0441" style="stop-color:#D6D6D5"/>
		<stop  offset="0.0873" style="stop-color:#B1B1B0"/>
		<stop  offset="0.1323" style="stop-color:#8F8F8E"/>
		<stop  offset="0.1794" style="stop-color:#6F6F6E"/>
		<stop  offset="0.2293" style="stop-color:#555454"/>
		<stop  offset="0.2829" style="stop-color:#3E3E3D"/>
		<stop  offset="0.342" style="stop-color:#252524"/>
		<stop  offset="0.4109" style="stop-color:#0B0B0B"/>
		<stop  offset="0.5131" style="stop-color:#000000"/>
		<stop  offset="0.6065" style="stop-color:#0B0B0B"/>
		<stop  offset="0.6696" style="stop-color:#252524"/>
		<stop  offset="0.7237" style="stop-color:#3E3E3D"/>
		<stop  offset="0.7728" style="stop-color:#555454"/>
		<stop  offset="0.8185" style="stop-color:#6F6F6F"/>
		<stop  offset="0.8617" style="stop-color:#8F8F8E"/>
		<stop  offset="0.9029" style="stop-color:#B1B1B0"/>
		<stop  offset="0.9416" style="stop-color:#D5D5D4"/>
		<stop  offset="0.9791" style="stop-color:#FBFBFB"/>
	</linearGradient>
	<path fill-rule="evenodd" clip-rule="evenodd" fill="url(#SVGID_6_)" d="M113.781,69.564c12.695,11.269,50.228,10.609,60.998,0.271
		c0,6.981,0.316,13.656-0.228,20.276c-0.132,1.601-2.787,3.639-4.815,4.432c-16.672,6.516-33.507,6.533-50.25,0.136
		c-4.138-1.582-5.964-4.512-5.767-8.61C113.972,80.798,113.781,75.512,113.781,69.564z"/>
</g>
</svg>
