<?xml version="1.0" encoding="utf-8"?>
<!-- Generator: Adobe Illustrator 16.0.0, SVG Export Plug-In . SVG Version: 6.00 Build 0)  -->
<!DOCTYPE svg PUBLIC "-//W3C//DTD SVG 1.1//EN" "http://www.w3.org/Graphics/SVG/1.1/DTD/svg11.dtd">
<svg version="1.1" id="Capa_1" xmlns="http://www.w3.org/2000/svg" xmlns:xlink="http://www.w3.org/1999/xlink" x="0px" y="0px"
	 width="300px" height="200px" viewBox="0 0 300 200" enable-background="new 0 0 300 200" xml:space="preserve">
<g>
	<path fill="#FFFFFF" d="M165.444,59.638c16.676-5.074,32.276-4.229,46.961,5.061c14.552,9.208,21.881,22.97,24.486,39.056
		c4.714-0.57,9.099-1.479,13.499-1.553c9.573-0.164,17.452,3.8,24.181,10.538c9.162,9.174,10.544,27.693,4.591,37.475
		c-6.727,11.056-15.969,17.231-29.066,17.231c-42.328,0-84.654-0.061-126.982,0.024c-23.942,0.046-47.884,0.433-71.826,0.449
		c-6.55,0.004-12.842-1.651-18.943-4.296c-9.194-3.988-15.288-11.048-20.009-19.432c-4.395-7.803-5.863-16.453-4.838-25.254
		c1.962-16.846,12.957-31.332,29.578-36.82c3.862-1.275,8.039-1.663,12.101-2.236c1.567-0.222,2.094-0.69,2.237-2.297
		c0.758-8.559,2.925-16.822,7.134-24.285c5.243-9.295,12.46-16.856,21.765-22.362c10.802-6.393,22.491-8.983,34.864-8.017
		c15.105,1.181,27.93,7.471,38.493,18.394C158.847,46.668,163.078,52.589,165.444,59.638z M139.655,95.763
		c0.44,1.013,0.61,1.289,0.684,1.587c1.272,5.147,2.59,10.283,3.764,15.451c0.347,1.527,1.092,2.206,2.585,2.124
		c1.472-0.079,3.235,0.425,3.872-1.595c2.374-7.541,4.731-15.086,7.06-22.641c0.393-1.272,0.026-1.987-1.533-2.094
		c-2.237-0.153-3.402,0.449-3.944,2.878c-1.245,5.587-2.854,11.094-4.316,16.631c-1.822-5.526-3.157-11.014-4.379-16.527
		c-0.44-1.979-1.106-3.128-3.516-3.144c-2.476-0.017-2.974,1.259-3.415,3.193c-1.225,5.384-2.581,10.737-3.884,16.103
		c-1.778-5.082-3.067-10.195-4.343-15.311c-1.047-4.193-1.242-4.324-5.986-3.576c0.039,0.658-0.048,1.378,0.14,2.018
		c2.183,7.416,4.351,14.839,6.701,22.204c0.26,0.813,1.548,1.608,2.496,1.832c2.452,0.579,3.761-0.531,4.283-3.104
		C136.96,106.658,138.281,101.583,139.655,95.763z M138.098,140.764c12.463-0.091,24.042-2.949,34.477-9.757
		c0.973-0.635,1.555-1.864,2.318-2.818c-1.245-0.042-2.49-0.113-3.734-0.113c-0.338,0.002-0.686,0.199-1.015,0.339
		c-7.858,3.285-16.105,5.059-24.541,5.592c-16.382,1.035-31.978-2.071-46.602-9.709c-1.093-0.571-2.374-0.783-3.566-1.161
		c0.8,1.149,1.382,2.576,2.434,3.41C109.671,135.888,123.116,140.639,138.098,140.764z M114.197,99.384
		c-2.87,0-5.475-0.135-8.059,0.029c-4.918,0.313-8.499,4.404-8.089,9.037c0.435,4.904,4.003,7.892,9.241,7.103
		c2.624-0.396,5.09-1.842,7.842-2.895c-0.018-0.03,0.152,0.376,0.424,0.698c0.839,1.002,1.483,2.436,3.244,1.276
		c1.444-0.95,2.632-1.724,1.572-3.855c-0.647-1.302-0.716-2.957-0.792-4.466c-0.191-3.866-0.02-7.761-0.408-11.603
		c-0.382-3.786-3.022-6.429-6.771-6.595c-3.092-0.136-6.28,0.245-9.317,0.901c-3.29,0.713-3.4,1.277-2.583,5.065
		c1.802-0.537,3.572-1.163,5.389-1.586C112.148,91.034,115.296,93.8,114.197,99.384z M169.721,87.707
		c-0.019,0.088-0.037,0.176-0.056,0.264c-0.45,0-0.902-0.013-1.354,0.002c-4.135,0.143-7.815,2.978-8.343,6.424
		c-0.59,3.842,1.568,6.939,5.929,8.465c1.697,0.594,3.431,1.084,5.115,1.707c1.681,0.62,3.273,1.508,2.925,3.647
		c-0.345,2.116-2.078,3.086-3.948,3.014c-2.66-0.101-5.298-0.738-7.953-1.083c-0.793-0.103-1.615,0.019-2.425,0.036
		c0.128,1.031,0.036,2.166,0.459,3.058c0.288,0.61,1.26,1.174,1.982,1.252c3.096,0.341,6.254,0.918,9.31,0.616
		c4.666-0.459,7.32-3.267,7.599-7.063c0.308-4.201-1.484-6.479-6.339-8.115c-1.956-0.659-4.014-1.166-5.791-2.162
		c-0.902-0.507-1.848-2.009-1.743-2.943c0.105-0.936,1.465-2.416,2.33-2.455c2.704-0.121,5.433,0.339,8.154,0.542
		c0.646,0.048,1.629,0.215,1.875-0.111c0.354-0.47,0.459-1.518,0.159-2.002c-0.478-0.774-1.282-1.587-2.116-1.85
		C173.621,88.361,171.649,88.101,169.721,87.707z M175.587,136.563c0.194,0.188,0.389,0.372,0.58,0.56
		c0.685-0.475,1.498-0.835,2.031-1.439c2.889-3.283,4.363-7.136,4.594-11.517c0.103-1.95-0.784-2.987-2.562-3.05
		c-2.85-0.103-5.772-0.31-8.541,0.201c-1.933,0.354-4.454,0.614-5.579,3.531c3.13-0.171,5.865-0.421,8.601-0.449
		c3.346-0.034,4.238,1.136,3.351,4.353C177.334,131.383,176.419,133.962,175.587,136.563z"/>
	<path fill="#EC922C" d="M30.201,163.063c1.333,0.521,2.624,1.224,4.004,1.531c5.558,1.234,11.142,2.359,16.723,3.495
		c0.521,0.104,1.082,0.016,1.625,0.014c66.831-0.181,133.663-0.268,200.491-0.648c9.813-0.056,17.807-4.972,23.568-12.915
		c7.374-10.162,8.438-21.182,3.605-32.778c-0.302-0.725-0.363-1.548-0.537-2.323c0.312-0.177,0.625-0.351,0.937-0.527
		c2.412,3.029,5.012,5.931,7.201,9.113c6.135,8.911,6.084,18.665,2.726,28.388c-2.411,6.979-7.375,12.187-13.646,16.245
		c-5.476,3.539-11.488,4.533-17.727,4.539c-55.162,0.07-110.324,0.068-165.487,0.079c-10.674,0.002-21.349-0.004-32.024-0.055
		c-11.64-0.057-21.779-4.097-30.522-11.716c-0.555-0.483-0.915-1.188-1.365-1.79C29.914,163.497,30.058,163.279,30.201,163.063z"/>
	<path fill="#EC922C" d="M138.098,140.764c-14.982-0.125-28.427-4.876-40.229-14.218c-1.053-0.832-1.635-2.259-2.434-3.41
		c1.192,0.378,2.474,0.592,3.566,1.163c14.624,7.636,30.22,10.744,46.602,9.707c8.436-0.533,16.683-2.307,24.541-5.592
		c0.329-0.137,0.677-0.337,1.015-0.337c1.244-0.002,2.489,0.069,3.734,0.111c-0.764,0.954-1.346,2.186-2.318,2.818
		C162.14,137.816,150.561,140.673,138.098,140.764z"/>
	<path fill="#EC922C" d="M175.587,136.563c0.832-2.601,1.747-5.18,2.475-7.813c0.888-3.215-0.005-4.385-3.351-4.351
		c-2.735,0.026-5.471,0.276-8.601,0.449c1.125-2.919,3.646-3.177,5.579-3.533c2.769-0.509,5.691-0.304,8.541-0.201
		c1.777,0.064,2.664,1.102,2.562,3.052c-0.23,4.381-1.705,8.233-4.594,11.515c-0.533,0.606-1.347,0.967-2.031,1.441
		C175.976,136.935,175.781,136.75,175.587,136.563z"/>
	<path fill="#FFFFFF" d="M110.429,102.626c1.291,0.656,3.382,1.043,3.712,2.022c0.775,2.305-0.33,4.438-2.611,5.604
		c-1.018,0.52-2.176,0.906-3.305,1.033c-2.79,0.312-4.573-1.113-4.742-3.569c-0.166-2.429,1.42-4.264,3.989-4.525
		c0.893-0.091,1.803-0.015,2.705-0.015C110.261,102.991,110.345,102.809,110.429,102.626z"/>
</g>
</svg>
