<?xml version="1.0" encoding="utf-8"?>
<!-- Generator: Adobe Illustrator 16.0.0, SVG Export Plug-In . SVG Version: 6.00 Build 0)  -->
<!DOCTYPE svg PUBLIC "-//W3C//DTD SVG 1.1//EN" "http://www.w3.org/Graphics/SVG/1.1/DTD/svg11.dtd">
<svg version="1.1" id="Capa_1" xmlns="http://www.w3.org/2000/svg" xmlns:xlink="http://www.w3.org/1999/xlink" x="0px" y="0px"
	 width="526.102px" height="284.669px" viewBox="0 0 526.102 284.669" enable-background="new 0 0 526.102 284.669"
	 xml:space="preserve">
<g>
	<path fill-rule="evenodd" clip-rule="evenodd" fill="#FFFFFF" d="M291.5,67.99c30.715-9.345,59.451-7.788,86.498,9.323
		c26.805,16.958,40.303,42.308,45.104,71.937c8.68-1.049,16.758-2.721,24.863-2.859c17.633-0.303,32.146,7,44.539,19.41
		c16.877,16.899,19.422,51.009,8.457,69.026c-12.391,20.365-29.414,31.74-53.539,31.74c-77.965-0.002-155.928-0.113-233.891,0.043
		c-44.1,0.088-88.199,0.799-132.299,0.828c-12.066,0.008-23.655-3.039-34.891-7.912c-16.935-7.346-28.159-20.35-36.855-35.791
		c-8.094-14.373-10.799-30.305-8.911-46.518c3.614-31.028,23.865-57.71,54.479-67.819c7.114-2.349,14.808-3.062,22.291-4.119
		c2.886-0.408,3.856-1.271,4.119-4.231c1.396-15.764,5.388-30.984,13.141-44.729c9.656-17.122,22.949-31.049,40.089-41.192
		C154.59,3.353,176.12-1.419,198.911,0.362c27.824,2.175,51.444,13.761,70.902,33.879C279.348,44.101,287.141,55.007,291.5,67.99z
		 M243.998,134.53c0.812,1.865,1.124,2.373,1.261,2.924c2.344,9.479,4.77,18.939,6.932,28.459c0.64,2.813,2.01,4.062,4.763,3.911
		c2.71-0.146,5.958,0.783,7.131-2.938c4.373-13.889,8.715-27.787,13.004-41.702c0.723-2.342,0.047-3.66-2.826-3.857
		c-4.119-0.283-6.266,0.827-7.264,5.302c-2.293,10.291-5.257,20.433-7.95,30.634c-3.356-10.18-5.814-20.287-8.068-30.441
		c-0.81-3.648-2.036-5.763-6.474-5.793c-4.562-0.031-5.48,2.319-6.291,5.883c-2.256,9.916-4.753,19.777-7.155,29.66
		c-3.273-9.361-5.649-18.779-8-28.202c-1.927-7.725-2.288-7.964-11.025-6.588c0.072,1.213-0.089,2.539,0.258,3.717
		c4.021,13.661,8.014,27.333,12.343,40.897c0.479,1.499,2.852,2.966,4.598,3.378c4.516,1.066,6.928-0.979,7.888-5.72
		C239.034,154.6,241.467,145.25,243.998,134.53z M241.13,217.419c22.957-0.166,44.283-5.432,63.505-17.973
		c1.791-1.166,2.863-3.434,4.27-5.191c-2.293-0.078-4.586-0.207-6.879-0.205c-0.623,0.002-1.262,0.367-1.869,0.621
		c-14.473,6.049-29.664,9.318-45.203,10.301c-30.174,1.906-58.901-3.816-85.836-17.883c-2.013-1.053-4.371-1.443-6.568-2.141
		c1.473,2.119,2.544,4.748,4.481,6.281C188.77,208.437,213.535,217.187,241.13,217.419z M197.107,141.2
		c-5.286,0-10.083-0.248-14.845,0.055c-9.059,0.574-15.655,8.111-14.899,16.646c0.8,9.033,7.372,14.534,17.021,13.079
		c4.833-0.729,9.374-3.392,14.442-5.331c-0.033-0.057,0.281,0.693,0.781,1.289c1.546,1.843,2.733,4.487,5.976,2.349
		c2.659-1.751,4.847-3.175,2.895-7.101c-1.192-2.398-1.32-5.447-1.458-8.227c-0.352-7.121-0.037-14.293-0.751-21.369
		c-0.705-6.973-5.567-11.843-12.471-12.148c-5.697-0.251-11.569,0.45-17.162,1.66c-6.06,1.312-6.263,2.352-4.757,9.328
		c3.318-0.987,6.578-2.142,9.925-2.921C193.332,125.82,199.132,130.915,197.107,141.2z M299.377,119.691
		c-0.033,0.162-0.068,0.324-0.102,0.486c-0.832,0-1.664-0.024-2.496,0.004c-7.615,0.263-14.395,5.486-15.367,11.834
		c-1.086,7.077,2.889,12.78,10.922,15.59c3.125,1.094,6.318,1.998,9.422,3.145c3.094,1.145,6.029,2.777,5.387,6.719
		c-0.635,3.898-3.828,5.686-7.273,5.553c-4.9-0.188-9.758-1.363-14.65-1.996c-1.461-0.188-2.975,0.035-4.465,0.068
		c0.234,1.898,0.066,3.988,0.844,5.631c0.531,1.122,2.322,2.161,3.652,2.306c5.701,0.627,11.518,1.689,17.148,1.135
		c8.594-0.846,13.484-6.019,13.996-13.009c0.566-7.74-2.734-11.936-11.674-14.949c-3.605-1.215-7.395-2.15-10.668-3.984
		c-1.662-0.934-3.404-3.699-3.211-5.421c0.193-1.724,2.699-4.448,4.291-4.52c4.982-0.224,10.008,0.624,15.021,0.996
		c1.189,0.089,3,0.397,3.453-0.203c0.652-0.866,0.846-2.795,0.293-3.687c-0.881-1.426-2.361-2.924-3.898-3.409
		C306.561,120.896,302.93,120.417,299.377,119.691z M310.182,209.681c0.357,0.344,0.715,0.686,1.07,1.029
		c1.26-0.873,2.758-1.537,3.74-2.652c5.32-6.045,8.037-13.141,8.461-21.211c0.189-3.592-1.443-5.502-4.717-5.619
		c-5.25-0.189-10.633-0.568-15.732,0.371c-3.561,0.654-8.205,1.131-10.277,6.506c5.766-0.318,10.803-0.777,15.842-0.828
		c6.162-0.061,7.807,2.092,6.172,8.016C313.401,200.138,311.715,204.888,310.182,209.681z"/>
	<path fill-rule="evenodd" clip-rule="evenodd" fill="#EC912C" d="M42.391,258.49c2.453,0.959,4.833,2.254,7.374,2.82
		c10.238,2.277,20.523,4.346,30.803,6.439c0.96,0.195,1.994,0.029,2.994,0.025c123.098-0.332,246.197-0.49,369.292-1.191
		c18.072-0.104,32.797-9.158,43.41-23.789c13.582-18.719,15.543-39.018,6.641-60.377c-0.555-1.334-0.67-2.852-0.99-4.281
		c0.574-0.324,1.15-0.646,1.727-0.969c4.441,5.58,9.229,10.924,13.262,16.785c11.299,16.414,11.207,34.379,5.021,52.287
		c-4.441,12.857-13.584,22.449-25.137,29.922c-10.084,6.521-21.16,8.35-32.65,8.363c-101.605,0.129-203.21,0.125-304.816,0.145
		c-19.662,0.004-39.324-0.006-58.986-0.1c-21.441-0.105-40.116-7.547-56.221-21.58c-1.021-0.889-1.685-2.188-2.515-3.297
		C41.863,259.292,42.127,258.89,42.391,258.49z"/>
	<path fill-rule="evenodd" clip-rule="evenodd" fill="#EC912C" d="M241.13,217.419c-27.595-0.232-52.36-8.982-74.099-26.189
		c-1.938-1.533-3.009-4.162-4.481-6.281c2.197,0.697,4.556,1.088,6.568,2.141c26.935,14.066,55.662,19.789,85.836,17.883
		c15.539-0.982,30.73-4.252,45.203-10.301c0.607-0.254,1.246-0.619,1.869-0.621c2.293-0.002,4.586,0.127,6.879,0.205
		c-1.406,1.758-2.479,4.025-4.27,5.191C285.413,211.988,264.086,217.253,241.13,217.419z"/>
	<path fill-rule="evenodd" clip-rule="evenodd" fill="#EC912C" d="M310.182,209.681c1.533-4.793,3.219-9.543,4.559-14.389
		c1.635-5.924-0.01-8.076-6.172-8.016c-5.039,0.051-10.076,0.51-15.842,0.828c2.072-5.375,6.717-5.852,10.277-6.506
		c5.1-0.939,10.482-0.561,15.732-0.371c3.273,0.117,4.906,2.027,4.717,5.619c-0.424,8.07-3.141,15.166-8.461,21.211
		c-0.982,1.115-2.48,1.779-3.74,2.652C310.897,210.367,310.54,210.025,310.182,209.681z"/>
	<path fill-rule="evenodd" clip-rule="evenodd" fill="#FFFFFF" d="M190.165,147.17c2.378,1.209,6.23,1.922,6.837,3.727
		c1.429,4.246-0.605,8.176-4.809,10.32c-1.873,0.957-4.007,1.67-6.087,1.902c-5.139,0.574-8.424-2.049-8.734-6.574
		c-0.307-4.471,2.615-7.852,7.346-8.334c1.645-0.168,3.32-0.027,4.982-0.027C189.855,147.846,190.011,147.508,190.165,147.17z"/>
</g>
</svg>
