<?xml version="1.0" encoding="utf-8"?>
<!-- Generator: Adobe Illustrator 16.0.0, SVG Export Plug-In . SVG Version: 6.00 Build 0)  -->
<!DOCTYPE svg PUBLIC "-//W3C//DTD SVG 1.1//EN" "http://www.w3.org/Graphics/SVG/1.1/DTD/svg11.dtd">
<svg version="1.1" id="Layer_1" xmlns="http://www.w3.org/2000/svg" xmlns:xlink="http://www.w3.org/1999/xlink" x="0px" y="0px"
	 width="100.029px" height="56.653px" viewBox="0 22.421 100.029 56.653" enable-background="new 0 22.421 100.029 56.653"
	 xml:space="preserve">
<g>
	<path d="M49.206,22.424c10.551,0,21.103,0,31.651,0c-0.241,0.188-0.469,0.398-0.728,0.559c-2.555,1.589-5.101,3.196-7.687,4.738
		c-1.033,0.616-1.557,1.308-1.521,2.62c0.102,3.986,0.066,7.976,0.016,11.964c-0.013,0.967,0.328,1.533,1.133,2.032
		c2.709,1.676,5.352,3.461,8.076,5.105c0.713,0.431,1.642,0.694,2.475,0.702c5.361,0.063,10.725,0.031,16.087,0.034
		c0.36,0.001,0.722,0.034,1.321,0.063c-2.94,1.831-5.647,3.508-8.348,5.196c-0.705,0.44-1.361,0.824-1.344,1.904
		c0.066,4.299,0,8.6,0.063,12.896c0.008,0.506,0.395,1.158,0.812,1.474c1.089,0.827,2.294,1.5,3.447,2.24
		c1.704,1.092,3.401,2.19,5.241,3.378c-10.803,0-21.361,0-32.2,0c2.834-1.915,5.419-3.691,8.04-5.411
		c0.705-0.461,1.011-0.969,1.004-1.833c-0.034-5.184-0.012-10.37-0.02-15.557c0-0.311-0.09-0.623-0.188-1.268
		c-0.356,0.607-0.563,0.889-0.698,1.2c-3.129,7.313-6.266,14.626-9.35,21.96c-0.312,0.734-0.654,1.036-1.444,1.016
		c-1.728-0.045-3.458-0.049-5.185,0.002c-0.778,0.023-1.174-0.248-1.488-0.967c-2.791-6.361-5.616-12.707-8.438-19.053
		c-0.465-1.045-0.967-2.072-1.453-3.107c-0.373,0.309-0.445,0.506-0.445,0.703c-0.002,5.098-0.019,10.192,0.041,15.289
		c0.006,0.473,0.372,1.086,0.761,1.379c1.377,1.039,2.843,1.963,4.267,2.938c1.25,0.854,2.49,1.724,3.988,2.76
		c-8.883,0-17.416,0-26.168,0c0.437-0.304,0.707-0.504,0.99-0.685c2.574-1.645,5.174-3.248,7.705-4.957
		c0.45-0.305,0.853-1.035,0.862-1.577c0.07-4.252,0.016-8.509,0.057-12.761c0.009-0.824-0.306-1.303-0.963-1.707
		c-2.116-1.293-4.183-2.664-6.335-3.891c-0.444-0.255-1.292-0.219-1.75,0.043c-2.04,1.152-3.984,2.479-6.009,3.661
		c-0.921,0.537-1.242,1.21-1.226,2.257c0.058,3.678,0.093,7.356,0.027,11.033c-0.039,2.164-0.571,4.164-2.385,5.664
		c-2.46,2.035-5.302,3.15-8.375,3.775c-1.488,0.305-2.986,0.56-4.479,0.836c-3.014,0-6.029,0-9.043,0c0-2.66,0-5.319,0-7.979
		c0.548-0.248,0.999-0.877,1.566,0.161c1.142,2.089,3.159,2.815,5.707,2.283c1.77-0.368,2.499-1.347,2.876-3.933
		c0.108-0.742,0.182-1.494,0.186-2.242c0.021-3.1-0.075-6.203,0.047-9.299c0.054-1.364-0.477-2.08-1.565-2.731
		C6.104,53.713,3.447,52,0.53,50.174c4.943,0,9.586,0.041,14.228-0.034c0.915-0.015,1.932-0.295,2.717-0.762
		c2.657-1.585,5.209-3.345,7.848-4.964c0.896-0.551,1.273-1.179,1.259-2.243c-0.051-4.03-0.058-8.062,0.003-12.091
		c0.016-1.084-0.397-1.691-1.288-2.225c-2.957-1.775-5.874-3.618-8.806-5.434c10.55,0,21.101,0,31.651,0
		c-1.973,1.626-3.856,3.377-5.944,4.839c-1.536,1.078-1.906,2.377-1.717,4.074c0.078,0.7,0.328,1.03,1.064,1.028
		c4.782-0.014,9.563,0,14.346-0.021c0.317-0.001,0.754-0.112,0.932-0.333c0.552-0.693,0.027-3.431-0.697-4.015
		C53.816,26.139,51.512,24.281,49.206,22.424z M48.729,38.853c-1.769,0-3.537-0.022-5.305,0.005c-3.21,0.049-2.954-0.571-2.916,2.98
		c0.008,0.737,0.128,1.732,0.602,2.161c2.188,1.979,4.533,3.782,6.786,5.688c0.634,0.538,1.118,0.521,1.729-0.003
		c1.604-1.379,3.115-2.923,4.895-4.025c2.156-1.338,2.721-3.092,2.485-5.44c-0.099-0.992-0.305-1.419-1.38-1.386
		C53.327,38.902,51.027,38.854,48.729,38.853z M64.012,62.355c0.16-0.008,0.32-0.01,0.48-0.016
		c1.729-4.063,3.456-8.125,5.271-12.399c-3.852,0-7.457,0-11.32,0C60.361,54.219,62.188,58.285,64.012,62.355z"/>
</g>
</svg>
