<?xml version="1.0" encoding="utf-8"?>
<!-- Generator: Adobe Illustrator 16.0.0, SVG Export Plug-In . SVG Version: 6.00 Build 0)  -->
<!DOCTYPE svg PUBLIC "-//W3C//DTD SVG 1.1//EN" "http://www.w3.org/Graphics/SVG/1.1/DTD/svg11.dtd">
<svg version="1.1" id="Capa_1" xmlns="http://www.w3.org/2000/svg" xmlns:xlink="http://www.w3.org/1999/xlink" x="0px" y="0px"
	 width="300px" height="200px" viewBox="0 0 300 200" enable-background="new 0 0 300 200" xml:space="preserve">
<g>
	<path fill-rule="evenodd" clip-rule="evenodd" fill="#F6F6F6" d="M29.572,4.955c2.476-0.604,4.952-1.734,7.429-1.737
		c78.008-0.093,156.017-0.076,234.024-0.076c0,64.091,0,128.18,0,192.272c-1.298-0.021-2.6-0.045-3.898-0.067
		c0.744-3.453,2.126-6.91,2.134-10.367c0.135-56.481,0.024-112.963,0.18-169.444c0.02-7.622-2.883-10.86-10.872-10.842
		C182.798,4.871,107.027,4.86,31.256,4.904C30.694,4.922,30.133,4.938,29.572,4.955z"/>
	<path fill-rule="evenodd" clip-rule="evenodd" fill="#FFFFFF" d="M29.572,4.955c0.562-0.017,1.123-0.033,1.685-0.051
		c-0.006,59.829,0.051,119.657-0.096,179.486c-0.019,7.307,2.109,11.297,10.421,11.275c75.181-0.203,150.364-0.235,225.545-0.319
		c1.299,0.022,2.075-0.836,3.373-0.814c-2.476,0.603-4.426,2.615-6.902,2.619c-78.01,0.092-156.019,0.076-234.026,0.076
		C29.572,133.136,29.572,69.046,29.572,4.955z"/>
	<linearGradient id="SVGID_1_" gradientUnits="userSpaceOnUse" x1="39.042" y1="111.085" x2="261.7158" y2="111.085">
		<stop  offset="0.1309" style="stop-color:#2581C4;stop-opacity:1"/>
		<stop  offset="0.6107" style="stop-color:#2581C4"/>
		<stop  offset="0.6911" style="stop-color:#2581C4"/>
		<stop  offset="0.9738" style="stop-color:#2581C4;stop-opacity:0"/>
	</linearGradient>
	<path fill-rule="evenodd" clip-rule="evenodd" fill="url(#SVGID_1_)" d="M150.887,186.388c-32.8,0.004-65.597,0.01-98.395,0
		c-12.901-0.006-13.441-0.551-13.443-13.49c-0.006-41.699-0.015-83.399,0.006-125.1c0.005-10.957,1.05-11.999,12.21-12.001
		c66.214-0.021,132.431,0.102,198.644-0.144c8.907-0.032,11.854,3.019,11.789,11.654c-0.325,42.908-0.333,85.819,0.017,128.727
		c0.066,7.961-2.514,10.558-10.578,10.483C217.722,186.205,184.304,186.386,150.887,186.388z M91.188,100.381
		c40.179,0,79.565,0,119.271,0c0-12.655,0-24.599,0-36.978c-40.003,0-79.424,0-119.271,0
		C91.188,75.877,91.188,87.851,91.188,100.381z M68.914,129.6c39.962,0,79.067,0,118.531,0c0.539-5.169,1.03-9.869,1.557-14.933
		c-40.503,0-80.134,0-120.087,0C68.914,119.98,68.914,124.444,68.914,129.6z M232.687,114.398c-13.017,0-25.211,0-37.264,0
		c0,5.561,0,10.493,0,15.436c12.695,0,24.658,0,37.264,0C232.687,124.724,232.687,120.043,232.687,114.398z M165.356,151.455
		c10.799,0,20.521,0,30.242,0c0.621-0.761,1.242-1.522,1.86-2.285c-2.086-2.076-4.032-5.751-6.288-5.941
		c-8.467-0.711-17.036-0.283-25.814-0.283C165.356,146.368,165.356,148.681,165.356,151.455z M91.127,151.591
		c10.321,0,19.51,0,28.993,0c0-2.929,0-5.424,0-8.063c-10.006,0-19.437,0-28.993,0C91.127,146.436,91.127,148.754,91.127,151.591z
		 M157.396,143.479c-9.914,0-19.322,0-29.422,0c0.19,3.058,0.345,5.542,0.492,7.896c10.211,0,19.63,0,29.395,0
		C157.686,148.408,157.55,146.097,157.396,143.479z"/>
	<path fill-rule="evenodd" clip-rule="evenodd" d="M211.854,19.538c-3.948,3.156-6.249,6.421-8.67,6.505
		c-2.103,0.074-5.772-3.259-6.075-5.442c-0.26-1.862,3.137-5.793,5.178-5.973C204.776,14.41,207.541,17.153,211.854,19.538z"/>
	<path fill-rule="evenodd" clip-rule="evenodd" d="M233.979,19.262c-3.797,3.253-5.98,6.57-8.43,6.772
		c-2.019,0.166-5.786-3.157-6.113-5.318c-0.284-1.889,2.969-5.881,4.982-6.1C226.902,14.348,229.72,17.025,233.979,19.262z"/>
	<path fill-rule="evenodd" clip-rule="evenodd" d="M247.427,29.147c-2.827-3.941-5.844-6.298-5.724-8.493
		c0.121-2.241,3.475-6.172,5.136-6.042c2.489,0.198,6.384,3.111,6.636,5.216C253.745,22.082,250.485,24.738,247.427,29.147z"/>
	<path fill-rule="evenodd" clip-rule="evenodd" d="M156.016,66.599c3.684,5.093-3.822,20.763-13.157,28.788
		C140.558,88.976,143.722,81.932,156.016,66.599z"/>
	<path fill-rule="evenodd" clip-rule="evenodd" d="M157.966,91.936c3.898-4.472,6.233-7.148,8.701-9.979
		c-1.867-3.478-3.778-7.034-5.688-10.59c1.177-0.75,2.353-1.499,3.529-2.249c3.217,4.705,8.96,9.462,8.856,14.095
		C173.281,86.926,168.035,93.598,157.966,91.936z"/>
	<path fill-rule="evenodd" clip-rule="evenodd" d="M138.166,72.345c-2.493,2.964-4.987,5.929-7.87,9.355
		c2.248,2.636,4.851,5.688,7.454,8.741c-0.722,0.817-1.442,1.634-2.162,2.451c-4.519-3.503-9.034-7.006-14.75-11.44
		c5.375-4.624,9.783-8.417,14.193-12.211C136.076,70.275,137.121,71.311,138.166,72.345z"/>
</g>
</svg>
