<?xml version="1.0" encoding="utf-8"?>
<!-- Generator: Adobe Illustrator 16.0.0, SVG Export Plug-In . SVG Version: 6.00 Build 0)  -->
<!DOCTYPE svg PUBLIC "-//W3C//DTD SVG 1.1//EN" "http://www.w3.org/Graphics/SVG/1.1/DTD/svg11.dtd">
<svg version="1.1" id="Capa_1" xmlns="http://www.w3.org/2000/svg" xmlns:xlink="http://www.w3.org/1999/xlink" x="0px" y="0px"
	 width="572.64px" height="433.711px" viewBox="0 0 572.64 433.711" enable-background="new 0 0 572.64 433.711"
	 xml:space="preserve">
<g>
	<linearGradient id="SVGID_1_" gradientUnits="userSpaceOnUse" x1="198.5195" y1="190.7544" x2="352.3901" y2="190.7544">
		<stop  offset="0.644" style="stop-color:#2581C4"/>
		<stop  offset="1" style="stop-color:#2581C4;stop-opacity:0"/>
	</linearGradient>
	<path fill-rule="evenodd" clip-rule="evenodd" fill="url(#SVGID_1_)" d="M325.222,213.968c-5.084-0.473-10.162-1.006-15.252-1.4
		c-2.908-0.227-5.393-0.137-7.593,2.824c-8.166,10.984-22.492,11.711-32.904,0.113c-3.805-4.236-7.387-4.625-12.64-2.625
		c-7.725,2.939-16.035,3.041-23.234-1.422c-2.725-1.689-3.716-6.063-5.725-9.061c-1.211-1.807-2.558-3.87-4.366-4.865
		c-6.488-3.568-13.283-6.575-19.802-10.093c-5.572-3.007-8.133-11.812-0.021-16.304c6.394-3.542,12.931-5.913,20.534-4.931
		c4.917,0.636,9.977,0.275,14.967,0.16c1.19-0.027,2.612-0.579,3.501-1.369c6.947-6.185,14.715-7.951,24.116-7.271
		c6.396,0.462,12.693,0.112,18.66,2.857c1.045,0.48,2.239,0.954,2.953,1.785c5.134,5.974,11.473,6.201,18.81,5.388
		c4.447-0.494,9.419,1.239,13.713,3.03c1.883,0.786,3.516,4.122,3.771,6.462c0.58,5.313,3.805,6.782,8.216,8.342
		c4.894,1.73,9.67,4.292,13.879,7.345c7.641,5.541,7.896,10.933-2.061,17.238c-5.266,3.334-12.732,3.191-19.205,4.619
		C325.433,214.517,325.328,214.244,325.222,213.968z"/>
	<path fill-rule="evenodd" clip-rule="evenodd" d="M458.769,121.489c0.65,0.613,1.301,1.228,2.767,2.612
		c1.22-7.354,2.348-13.837,3.361-20.338c1.96-12.579,3.876-25.166,5.767-37.755c0.803-5.337,1.755-10.675,2.07-16.045
		c0.085-1.454-1.578-3.868-2.992-4.419c-11.67-4.547-23.472-8.752-35.227-13.082c-0.849-0.313-1.634-0.794-2.879-1.411
		c8.547-5.736,16.666-11.225,24.858-16.604c0.558-0.366,1.715-0.066,2.499,0.2c13.075,4.443,26.107,9.016,39.221,13.342
		c2.986,0.986,3.82,2.291,3.273,5.43c-4.027,23.12-7.686,46.305-11.875,69.395c-1.567,8.636-4.861,16.515-14.838,18.98
		c-1.698,0.42-3.143,1.841-4.723,2.765c-5.068,2.963-10.296,3.4-15.793,1.188c-13.42-5.396-26.938-10.551-40.28-16.126
		c-9.639-4.027-19.078-8.537-28.573-12.902c-5.68-2.611-6.8-5.071-6.204-11.487c1.649-17.742,3.166-35.496,4.729-53.246
		c0.126-1.437,0.207-2.878,0.31-4.317c0.416,0.029,0.831,0.059,1.247,0.088c-0.676,9.004-1.396,18.006-2.017,27.015
		c-0.591,8.589-1.17,17.18-1.585,25.778c-0.481,9.974-0.431,10.057,9.004,13.656c3.586,1.369,7.346,2.284,11.026,3.405
		c4.613,1.958,9.226,3.917,13.839,5.874c4.051,1.704,8.102,3.407,12.151,5.111C438.195,112.895,448.482,117.191,458.769,121.489z"/>
	<path fill-rule="evenodd" clip-rule="evenodd" d="M68.757,186.905c-8.029,4.307-16.173,8.744-24.384,13.052
		c-4.407,2.312-9.154,4.042-13.346,6.677c-5.749,3.611-11.163,1.09-16.553-0.33c-1.544-0.406-3.181-2.787-3.654-4.561
		c-3.668-13.747-7.108-27.553-10.508-41.369c-0.842-3.422-0.109-5.943,3.712-7.702c12.405-5.711,24.646-11.783,36.867-17.885
		c3.046-1.521,5.638-1.47,8.082,0.784c4.354,4.015,10.837,6.054,12.042,13.013c0.588,3.397,1.295,6.775,1.982,10.155
		C64.833,167.759,66.684,176.773,68.757,186.905z M16.765,176.621c-0.306,0.093-0.611,0.186-0.917,0.278
		c2.901,9.63,5.804,19.259,8.705,28.887c0.333-0.1,0.665-0.201,0.998-0.301C22.622,195.863,19.693,186.242,16.765,176.621z"/>
	<linearGradient id="SVGID_2_" gradientUnits="userSpaceOnUse" x1="106.4536" y1="273.7554" x2="221.9268" y2="273.7554">
		<stop  offset="0" style="stop-color:#2581C4"/>
		<stop  offset="1" style="stop-color:#2581C4;stop-opacity:0"/>
	</linearGradient>
	<path fill-rule="evenodd" clip-rule="evenodd" fill="url(#SVGID_2_)" d="M179.547,236.486c12.203,0,24.407-0.084,36.607,0.127
		c1.267,0.021,3.466,1.666,3.601,2.758c0.964,7.838,1.519,15.725,2.161,23.6c0.062,0.764-0.16,1.549-0.36,3.266
		c-3.18-2.197-5.638-4.396-8.504-5.699c-1.934-0.879-5.098-1.498-6.594-0.521c-20.463,13.363-40.731,27.021-61.035,40.629
		c-0.537,0.359-0.922,0.945-1.982,2.064c3.565,2.617,7.006,5.145,11.35,8.334c-16.426,0-31.865,0-48.337,0
		c1.577-10.064,3.157-20.154,4.846-30.932c2.304,1.313,4.682,2.158,6.383,3.736c3.773,3.5,7.278,2.65,11.041,0.199
		c11.374-7.408,22.778-14.768,34.171-22.145c6.869-4.449,13.628-9.078,20.647-13.273c3.771-2.254,4.534-3.9,0.457-6.508
		c-1.72-1.102-3.071-2.777-4.591-4.189C179.455,237.449,179.5,236.968,179.547,236.486z"/>
	<linearGradient id="SVGID_3_" gradientUnits="userSpaceOnUse" x1="253.355" y1="308.5542" x2="319.9653" y2="308.5542">
		<stop  offset="0" style="stop-color:#2581C4"/>
		<stop  offset="1" style="stop-color:#2581C4;stop-opacity:0"/>
	</linearGradient>
	<path fill-rule="evenodd" clip-rule="evenodd" fill="url(#SVGID_3_)" d="M300.659,325.316c-0.687-0.561-1.372-1.123-2.058-1.686
		c-0.572,0.904-1.528,1.754-1.657,2.717c-1.433,10.711-2.704,21.443-4.116,32.156c-0.179,1.357-0.908,2.645-1.604,4.576
		c-12.691-7.658-24.939-15.049-37.188-22.439c0.11-0.395,0.22-0.791,0.33-1.188c6.025,0,12.052,0,17.582,0
		c0-21.924,0-43.246,0-64.305c-6.62,0-12.382,0-18.594,0c0.722-0.883,1.215-1.916,2.034-2.42
		c9.316-5.734,18.687-11.383,28.034-17.068c3.312-2.014,6.063-2.428,9.724,0.279c8.211,6.072,16.968,11.404,26.818,17.906
		c-6.813,0.721-12.117,1.283-17.778,1.883c0.699,16.758,1.393,33.387,2.101,50.348c-1.646-0.395-2.714-0.65-3.78-0.906
		L300.659,325.316z"/>
	<linearGradient id="SVGID_4_" gradientUnits="userSpaceOnUse" x1="344.4487" y1="262.2983" x2="463.8647" y2="262.2983">
		<stop  offset="0" style="stop-color:#2581C4"/>
		<stop  offset="1" style="stop-color:#2581C4;stop-opacity:0"/>
	</linearGradient>
	<path fill-rule="evenodd" clip-rule="evenodd" fill="url(#SVGID_4_)" d="M455.773,263.164c2.746,10.129,5.334,19.666,8.092,29.834
		c-15.337,1.555-30.309,3.076-46.446,4.713c3.736-3.994,6.776-7.244,10.238-10.945c-8.601-4.939-16.471-9.574-24.448-14.016
		c-13.19-7.348-26.563-14.375-39.622-21.949c-4.847-2.811-8.252-2.111-11.427,2.031c-1.018,1.328-1.9,2.758-3.48,5.072
		c-5.364-10.941-0.715-21.209-4.23-31.018c13.615,0,26.722,0,40.814,0c-2.754,2.406-4.914,4.295-7.673,6.707
		c1.344,1.057,2.521,2.299,3.954,3.063c13.446,7.174,26.947,14.25,40.412,21.391c7.229,3.834,14.353,7.877,21.688,11.494
		c1.32,0.65,3.729,0.168,5.125-0.654C451.133,267.496,453.092,265.416,455.773,263.164z"/>
	<linearGradient id="SVGID_5_" gradientUnits="userSpaceOnUse" x1="422.7261" y1="77.5361" x2="471.645" y2="77.5361">
		<stop  offset="0" style="stop-color:#FFFFFF"/>
		<stop  offset="1" style="stop-color:#000000"/>
	</linearGradient>
	<path fill-rule="evenodd" clip-rule="evenodd" fill="url(#SVGID_5_)" d="M458.769,121.489
		c-10.287-4.298-20.574-8.595-30.862-12.893c-1.599-0.947-3.198-1.896-5.181-3.07c2.767-23.595,5.568-47.473,8.438-71.943
		c13.865,4.767,27.292,9.382,40.48,13.915c-2.003,13.859-3.858,26.996-5.813,40.118c-1.612,10.816-3.313,21.619-5.095,32.408
		C460.641,120.605,459.45,121.005,458.769,121.489z"/>
	<path fill-rule="evenodd" clip-rule="evenodd" d="M501.773,270.898c6.306,2.977,12.02,5.549,17.621,8.35
		c5.21,2.604,10.148,5.799,15.483,8.09c4.977,2.139,8.017,5.789,9.612,10.551c0.624,1.865,0.308,5.066-0.934,6.375
		c-12.812,13.514-25.707,26.965-39.029,39.969c-4.05,3.953-10.137,4.625-15.195,1.943c-12.015-6.373-23.853-13.127-35.43-20.264
		c-5.971-3.68-5.947-8.07-0.333-13.6c12.369-12.186,24.841-24.275,37.599-36.053C493.886,273.75,497.998,272.746,501.773,270.898z
		 M539.299,298.845c-14.249-7.361-27.975-14.492-41.771-21.482c-0.917-0.465-2.803-0.318-3.521,0.334
		c-6.344,5.76-12.523,11.697-19.4,18.197c14.663,7.936,28.474,15.465,42.376,22.822c0.968,0.512,3.117,0.258,3.857-0.492
		C527,311.992,532.958,305.558,539.299,298.845z M526.062,287.945c0.365-0.744,0.731-1.488,1.097-2.23
		c-3.896-1.799-7.795-3.598-11.691-5.396c-0.298,0.617-0.596,1.236-0.894,1.854C518.404,284.095,522.233,286.019,526.062,287.945z"
		/>
	<linearGradient id="SVGID_6_" gradientUnits="userSpaceOnUse" x1="382.8091" y1="60.6357" x2="425.8813" y2="60.6357">
		<stop  offset="0" style="stop-color:#FFFFFF"/>
		<stop  offset="1" style="stop-color:#000000"/>
	</linearGradient>
	<path fill-rule="evenodd" clip-rule="evenodd" fill="url(#SVGID_6_)" d="M415.755,103.485c-4.613-1.957-9.226-3.916-13.839-5.874
		c-4.791-2.268-9.388-5.28-14.429-6.593c-5.107-1.329-4.88-4.314-4.506-8.05c0.654-6.545,1.376-13.087,1.885-19.645
		c1.143-14.668,2.168-29.345,3.264-44.016c0.034-0.453,0.321-0.888,0.563-1.522c11.71,4.067,23.359,8.055,34.938,12.24
		c1.025,0.371,2.345,2.116,2.243,3.089c-2.091,19.991-4.382,39.961-6.587,59.939c-0.236,2.145,0.207,4.437-0.389,6.445
		C418.454,101.007,416.847,102.17,415.755,103.485z"/>
	<linearGradient id="SVGID_7_" gradientUnits="userSpaceOnUse" x1="59.896" y1="199.0894" x2="194.061" y2="199.0894">
		<stop  offset="0" style="stop-color:#2581C4"/>
		<stop  offset="1" style="stop-color:#2581C4;stop-opacity:0"/>
	</linearGradient>
	<path fill-rule="evenodd" clip-rule="evenodd" fill="url(#SVGID_7_)" d="M59.896,198.686c11.099-6.061,21.238-11.598,32.02-17.484
		c-0.42,3.077-0.737,5.405-1.098,8.044c25.607,0,50.862,0,76.61,0c0.615-2.705,1.28-5.629,2.06-9.053
		c8.088,5.688,15.896,11.181,24.573,17.283c-9.965,6.893-19.258,13.321-29.188,20.19c0-4.027,0-7.262,0-11.35
		c-5.11,0.346-9.813,0.773-14.524,0.957c-5.145,0.201-10.298,0.146-15.446,0.256c-14.92,0.314-29.839,0.848-44.759,0.873
		c-4.696,0.01-6.911,1.232-6.248,6.125c0.079,0.584-0.217,1.219-0.665,3.459C75.089,211.253,67.684,205.126,59.896,198.686z"/>
	<linearGradient id="SVGID_8_" gradientUnits="userSpaceOnUse" x1="353.9468" y1="195.5552" x2="485.9341" y2="195.5552">
		<stop  offset="0" style="stop-color:#2581C4"/>
		<stop  offset="1" style="stop-color:#2581C4;stop-opacity:0"/>
	</linearGradient>
	<path fill-rule="evenodd" clip-rule="evenodd" fill="url(#SVGID_8_)" d="M464.422,213.849c-3.745-11.51-3.74-11.479-15.436-9.439
		c-1.62,0.283-3.322,0.109-4.986,0.111c-20.124,0.004-40.247,0.002-60.751,0.002c-0.225,2.871-0.422,5.375-0.668,8.518
		c-9.695-5.893-18.844-11.451-28.635-17.403c8.173-5.572,15.677-10.688,23.316-15.897c0.677,2.614,0.572,5.799,2.049,6.944
		c1.613,1.251,4.69,0.773,7.128,0.777c22.899,0.041,45.798,0.025,69.466,0.025c-0.51-4.028-0.844-6.658-1.295-10.226
		c10.592,5.761,20.519,11.157,31.323,17.033C478.433,201.113,471.55,207.371,464.422,213.849z"/>
	<path fill-rule="evenodd" clip-rule="evenodd" d="M158.379,96.91c0.778,0.079,1.557,0.158,2.336,0.236
		c-0.375,2.083-0.191,4.553-1.288,6.135c-0.992,1.433-3.382,1.897-5.156,2.785c-10.804,5.405-21.621,10.78-32.402,16.229
		c-3.444,1.741-6.519,2.044-10.131-0.11c-6.235-3.719-12.835-6.821-19.23-10.278c-1.093-0.591-1.929-1.658-2.884-2.505
		c1.064-0.309,2.974-0.482,3.048-0.949c0.317-1.99,0.934-5.002-0.098-5.93c-2.654-2.386-6.127-3.863-9.278-5.707
		c-2.156,4.163-0.994,7.241,1.754,9.989c-2.783-0.478-4.31-1.778-4.119-4.956c0.18-2.997-0.126-5.464,3.606-7.111
		c12.81-5.649,25.368-11.867,38.096-17.711c1.252-0.575,3.313-0.622,4.473,0.025c9.78,5.453,19.462,11.083,29.094,16.794
		c1.022,0.606,1.533,2.077,2.263,3.132c-1.884,0.347-3.933,0.33-5.582,1.134c-9.468,4.617-18.844,9.421-28.236,14.189
		c-0.693,0.352-1.272,0.926-1.905,1.397c0.123,0.159,0.245,0.319,0.368,0.48C134.864,108.423,146.622,102.666,158.379,96.91z"/>
	<path fill-rule="evenodd" clip-rule="evenodd" d="M254.967,71.085c-4.022,2.215-6.889,5.133-9.521,4.936
		c-4.19-0.314-8.693-2.032-12.163-4.451c-2.337-1.629-0.599-4.646,2.173-5.666c1.598-0.589,3.424-0.56,6.477-1
		c-4.746-2.381-8.52-3.962-11.931-6.117c-1.7-1.074-2.886-3.107-4.003-4.895c-0.454-0.726-0.123-1.952-0.123-2.949
		c-0.005-7.3-0.003-14.598-0.003-22.574c8.504,3.531,16.68,6.931,24.859,10.321c1.525,0.632,3.246,0.973,4.557,1.9
		c2.322,1.644,4.398,3.634,7.548,6.302c4.579-2.309,10.428-5.3,16.318-8.207c2.726-1.347,15.037,2.019,16.359,4.516
		c0.426,0.807,0.288,1.948,0.294,2.938c0.052,7.986,0.453,15.995-0.024,23.95c-0.313,5.218-1.67,10.354-7.958,12.231
		c-4.437,1.323-8.596,3.566-13.027,4.911c-9.122,2.77-15.836-1.909-16.692-11.322C257.74,71.881,257.74,71.881,254.967,71.085z
		 M227.786,32.143c0.428,8.091,0.743,15.157,1.249,22.21c0.062,0.868,0.955,2.08,1.767,2.43c8.477,3.65,17.016,7.157,26.336,11.036
		c0-7.986,0-15.196,0-23.216C248.143,40.785,238.415,36.655,227.786,32.143z"/>
	<linearGradient id="SVGID_9_" gradientUnits="userSpaceOnUse" x1="197.7065" y1="210.4155" x2="353.0366" y2="210.4155">
		<stop  offset="0" style="stop-color:#2581C4"/>
		<stop  offset="1" style="stop-color:#2581C4;stop-opacity:0"/>
	</linearGradient>
	<path fill-rule="evenodd" clip-rule="evenodd" fill="url(#SVGID_9_)" d="M198.101,183.915c6.691,8.121,16.282,10.091,24.43,14.558
		c1.816,0.996,3.731,2.966,4.304,4.876c2.418,8.074,6.568,11.828,14.938,12.084c6.229,0.191,12.452,0.459,18.43-2.406
		c1.477-0.707,4.347,0.414,6.047,1.512c2.412,1.561,4.265,3.961,6.479,5.857c6.996,5.996,22.928,7.09,30.72-4.096
		c2.149-3.084,4.37-2.59,7.479-2.426c9.439,0.498,19.022,1.197,28.33,0.045c4.747-0.586,9.024-4.967,13.166-7.426
		c2.289,9.693-1.771,16.713-13.005,18.902c-8.028,1.564-16.479,1.254-24.74,1.229c-5.959-0.018-11.246,0.012-15.148,5.818
		c-4.295,6.393-19.674,5.42-26.08,0.328c-0.78-0.619-1.567-1.24-2.282-1.932c-5.425-5.25-11.397-5.055-18.598-3.744
		c-10.21,1.859-20.898,2.18-25.864-12.6c-0.953-2.838-5.43-4.73-8.582-6.533c-4.828-2.764-10.092-4.783-14.854-7.646
		C197.186,196.661,197.292,190.57,198.101,183.915z"/>
	<linearGradient id="SVGID_10_" gradientUnits="userSpaceOnUse" x1="138.894" y1="139.3286" x2="226.7612" y2="139.3286">
		<stop  offset="0" style="stop-color:#2581C4"/>
		<stop  offset="1" style="stop-color:#2581C4;stop-opacity:0"/>
	</linearGradient>
	<path fill-rule="evenodd" clip-rule="evenodd" fill="url(#SVGID_10_)" d="M138.894,135.883c1.094-6.604,1.894-12.408,3.152-18.112
		c0.221-0.997,2.363-2.213,3.638-2.234c10.479-0.181,20.96-0.102,31.882,0.891c-2.688,1.518-5.377,3.035-8.59,4.85
		c4.581,2.728,8.922,5.457,13.396,7.946c9.875,5.494,19.727,11.045,29.814,16.121c1.778,0.896,4.81,0.009,6.989-0.793
		c2.314-0.851,4.305-2.582,7.586-4.654c-0.355,5.71-0.316,10.222-0.98,14.628c-1.207,8.016-1.387,7.841-9.947,8.115
		c-9.098,0.292-18.185,0.905-27.731,0.304c2.244-1.637,4.489-3.272,7.445-5.428c-4.292-2.715-8.13-5.308-12.122-7.636
		c-10.063-5.867-20.107-11.785-30.383-17.263c-1.963-1.046-5.038-0.578-7.438-0.061
		C143.465,133.017,141.551,134.513,138.894,135.883z"/>
	<linearGradient id="SVGID_11_" gradientUnits="userSpaceOnUse" x1="333.0269" y1="136.0991" x2="420.4146" y2="136.0991">
		<stop  offset="0" style="stop-color:#2581C4"/>
		<stop  offset="1" style="stop-color:#2581C4;stop-opacity:0"/>
	</linearGradient>
	<path fill-rule="evenodd" clip-rule="evenodd" fill="url(#SVGID_11_)" d="M365.23,155.102c3.752,1.796,6.915,3.311,10.078,4.825
		c-0.023,0.298-0.047,0.596-0.069,0.895c-12.938,0-25.876,0-38.998,0c-0.996-6.402-2.042-13.133-3.214-20.671
		c2.966,1.62,5.332,3.316,7.97,4.213c1.779,0.604,4.431,0.85,5.858-0.056c13.004-8.251,25.825-16.791,39.239-25.601
		c-3.144-1.945-5.949-3.682-8.755-5.417c0.009-0.339,0.018-0.677,0.027-1.015c4.006,0,8.016,0.121,12.017-0.029
		c5.622-0.21,11.235-0.729,16.857-0.867c1.307-0.032,3.261,0.552,3.853,1.511c3.611,5.844,6.914,11.878,10.321,17.849
		c-0.301,0.4-0.603,0.802-0.903,1.202c-3.221-1.235-6.404-2.594-9.687-3.64c-1.212-0.387-2.978-0.548-3.949,0.058
		c-12.946,8.077-25.799,16.303-38.656,24.52C366.697,153.212,366.354,153.826,365.23,155.102z"/>
	<path fill-rule="evenodd" clip-rule="evenodd" d="M27.781,379.16c-2.874-1.393-5.059-1.961-6.597-3.283
		c-6.051-5.199-11.92-10.613-17.813-15.996c-3.411-3.115-2.568-6.551,0.332-9.1c4.595-4.041,9.436-7.896,14.572-11.209
		c15.628-10.08,31.393-19.953,47.237-29.691c3.201-1.967,6.902-3.867,10.521-4.203c3.648-0.34,8.04,0.393,11.114,2.275
		c6.063,3.711,11.373,8.633,17.124,12.877c3.775,2.785,3.667,5.787,0.673,8.754c-2.927,2.902-6.014,5.746-9.417,8.041
		c-16.924,11.412-33.854,22.828-51.056,33.813C39.267,374.761,33.182,376.708,27.781,379.16z M98.602,332.562
		c-9.404-7.406-17.813-14.143-26.42-20.617c-0.845-0.637-3.134-0.064-4.357,0.637c-5.737,3.281-11.379,6.734-16.973,10.256
		c-10.93,6.881-21.805,13.848-34.593,21.982c2.8,1.908,4.981,3.127,6.846,4.715c6.071,5.182,12.216,10.301,17.941,15.846
		c2.65,2.566,4.5,2.314,7.227,0.482c8.806-5.91,17.762-11.598,26.615-17.439C82.473,343.419,89.997,338.322,98.602,332.562z"/>
	<linearGradient id="SVGID_12_" gradientUnits="userSpaceOnUse" x1="256.3491" y1="117.7954" x2="308.0845" y2="117.7954">
		<stop  offset="0" style="stop-color:#2581C4"/>
		<stop  offset="1" style="stop-color:#2581C4;stop-opacity:0"/>
	</linearGradient>
	<path fill-rule="evenodd" clip-rule="evenodd" fill="url(#SVGID_12_)" d="M293.546,133.59c5.313,0,9.698,0,14.084,0
		c0.151,0.431,0.303,0.861,0.454,1.292c-3.798,2.254-7.597,4.505-11.393,6.76c-2.119,1.259-4.319,2.402-6.334,3.81
		c-4.251,2.969-8.068,3.46-12.983,0.564c-6.725-3.962-14.132-6.764-21.025-11.264c4.303,0,8.606,0,13.202,0
		c0-12.208,0-23.774,0-36.006c-4.331,0.275-8.394,0.533-12.456,0.792c-0.12-0.442-0.241-0.886-0.362-1.328
		c2.955-1.43,6.229-2.433,8.809-4.364c10.621-7.955,20.961-8.621,31.498,0.104c1.84,1.523,4.3,2.297,6.435,4.376
		c-3.261,0.188-6.521,0.375-9.928,0.571C293.546,110.308,293.546,121.505,293.546,133.59z"/>
	<path fill-rule="evenodd" clip-rule="evenodd" d="M300.507,325.169c6.258,4.426,12.461,8.934,18.788,13.26
		c10.603,7.248,21.344,14.293,31.853,21.672c1.24,0.871,2.189,3.434,1.921,4.977c-2.135,12.283-4.092,24.641-7.24,36.68
		c-1.061,4.055-5.063,7.602-8.316,10.768c-6.519,6.34-13.612,12.09-20.141,18.422c-3.536,3.43-6.593,3.648-10.415,0.766
		c-15.352-11.582-30.788-23.051-46.143-34.629c-2.041-1.539-4.013-4.172-1.614-6.158c9.819-8.137,19.984-15.854,30.016-23.719
		c-1.904,1.795-3.71,3.697-5.716,5.354c-7.555,6.24-15.174,12.4-23.705,19.352c17.717,13.164,34.842,25.891,52.424,38.953
		c10.256-9.586,20.428-19.092,30.63-28.627c-13.691-9.662-26.693-19.123-40.034-28.082c-4.188-2.813-7.818-7.314-13.756-6.793
		c5.854-2.859,4.835-8.793,5.705-13.625c1.447-8.033,2.024-16.221,3.242-24.303c0.221-1.469,1.748-2.74,2.663-4.111
		C300.659,325.316,300.507,325.169,300.507,325.169z M342.62,395.402c1.789-9.887,3.535-19.363,5.203-28.855
		c0.547-3.107,0.007-5.482-3.19-7.439c-8.077-4.938-15.826-10.41-23.739-15.617c-6.49-4.271-13.028-8.475-19.587-12.734
		c-1.542,10.158-3.135,19.742-4.336,29.375c-0.228,1.818,0.5,4.705,1.815,5.619C313.199,375.75,327.816,385.455,342.62,395.402z"/>
	<path fill-rule="evenodd" clip-rule="evenodd" d="M385.427,14.836c9.854-5.072,18.678-9.647,27.548-14.135
		c0.958-0.484,2.335-0.908,3.253-0.592c12.703,4.373,25.359,8.881,38.023,13.37c0.117,0.042,0.166,0.278,0.387,0.675
		c-7.594,5.021-15.121,10.19-22.891,14.971c-1.47,0.905-4.107,0.862-5.843,0.24c-11.618-4.161-23.134-8.612-34.698-12.925
		C389.704,15.88,388.107,15.571,385.427,14.836z"/>
	<path fill-rule="evenodd" clip-rule="evenodd" d="M483.139,205.605c4.486-3.566,7.488-6.847,11.212-8.528
		c1.801-0.813,5.057,1.161,7.486,2.25c11.695,5.243,23.414,10.448,34.946,16.038c3.604,1.744,6.668,4.617,9.923,7.049
		c0.465,0.348,0.807,1.104,0.867,1.705c0.303,3.031-6.764,8.719-9.591,7.402C520.218,223.253,502.541,214.8,483.139,205.605z"/>
	<path fill-rule="evenodd" clip-rule="evenodd" d="M512.982,146.173c19.457,7.804,38.105,15.198,56.637,22.878
		c1.474,0.61,3.313,3.483,2.982,4.805c-2.73,10.929-5.935,21.739-9.289,33.63c-8.088-3.41-15.809-6.664-23.871-10.062
		c0,2.669,0,4.777,0,6.884c0.372,0.113,0.743,0.227,1.115,0.34c0.775-1.18,1.552-2.357,3.022-4.594
		c0.553,2.701,0.928,4.537,1.409,6.893c-9.624,1.219-17.68-0.764-24.634-6.625c-0.914-0.771-1.058-2.456-1.559-3.717
		c1.225,0.366,2.479,0.652,3.665,1.116c2.052,0.802,4.484,2.843,5.977,2.282c1.729-0.648,2.614-3.543,4.118-5.85
		c-7.663-3.716-14.339-7.26-21.276-10.186c-3.483-1.47-4.721-2.593-3.753-6.83C509.816,167.105,511.164,156.858,512.982,146.173z
		 M515.477,150.249c-1.64,8.67-2.769,16.719-4.8,24.531c-1.064,4.088,0.173,5.396,3.609,6.933
		c10.072,4.503,19.941,9.455,29.926,14.159c5.646,2.662,11.361,5.182,17.042,7.762c2.399-9.053,4.619-17.732,7.03-26.357
		c0.837-2.993,0.585-4.876-2.799-5.995c-3.386-1.12-6.519-2.984-9.827-4.366C542.538,161.435,529.393,156.015,515.477,150.249z"/>
	<path fill-rule="evenodd" clip-rule="evenodd" d="M197.589,74.957c7.628-7.396,11.309-8.008,19.554-4.137
		c7.366,3.459,14.829,6.709,22.187,10.186c1.238,0.585,3.119,1.986,3.007,2.767c-0.195,1.352-1.485,2.85-2.721,3.693
		c-4.939,3.371-9.826,4.567-15.662,1.104c-6.403-3.8-13.443-6.518-20.152-9.815C201.789,77.767,199.953,76.417,197.589,74.957z"/>
	<path fill-rule="evenodd" clip-rule="evenodd" d="M241.29,96.005c-1.331-1.832-2.956-3.394-2.694-3.835
		c0.761-1.281,2.199-2.764,3.521-2.922c1.1-0.132,2.41,1.499,3.627,2.35C244.46,92.867,243.178,94.136,241.29,96.005z"/>
	<path fill-rule="evenodd" clip-rule="evenodd" d="M335.772,402.88c-4.623,4.096-8.602,7.848-12.872,11.232
		c-1.005,0.797-3.485,1.047-4.463,0.365c-13.692-9.549-27.241-19.305-42.02-29.861c5.61-4.777,10.031-8.627,14.592-12.303
		c0.494-0.398,2.013-0.092,2.696,0.395C307.568,382.585,321.378,392.535,335.772,402.88z"/>
	<path fill-rule="evenodd" clip-rule="evenodd" d="M300.4,405.156c-1.624,4.25-4.034,4.367-7.024,2.145
		c-1.452-1.078-3.212-1.979-4.176-3.404c-0.864-1.279-0.828-3.166-1.189-4.785c1.578,0.037,3.474-0.473,4.669,0.223
		C295.35,400.888,297.672,403.042,300.4,405.156z"/>
</g>
</svg>
