<?xml version="1.0" encoding="utf-8"?>
<!-- Generator: Adobe Illustrator 16.0.0, SVG Export Plug-In . SVG Version: 6.00 Build 0)  -->
<!DOCTYPE svg PUBLIC "-//W3C//DTD SVG 1.1//EN" "http://www.w3.org/Graphics/SVG/1.1/DTD/svg11.dtd">
<svg version="1.1" id="Capa_1" xmlns="http://www.w3.org/2000/svg" xmlns:xlink="http://www.w3.org/1999/xlink" x="0px" y="0px"
	 width="300px" height="200px" viewBox="0 0 300 200" enable-background="new 0 0 300 200" xml:space="preserve">
<g>
	<linearGradient id="SVGID_1_" gradientUnits="userSpaceOnUse" x1="108.8203" y1="89.0415" x2="174.7939" y2="89.0415">
		<stop  offset="0.644" style="stop-color:#2581C4"/>
		<stop  offset="1" style="stop-color:#2581C4;stop-opacity:0"/>
	</linearGradient>
	<path fill-rule="evenodd" clip-rule="evenodd" fill="url(#SVGID_1_)" d="M163.146,98.995c-2.18-0.203-4.357-0.432-6.541-0.601
		c-1.246-0.097-2.313-0.059-3.256,1.212c-3.5,4.709-9.643,5.021-14.106,0.047c-1.632-1.816-3.167-1.982-5.419-1.125
		c-3.312,1.261-6.876,1.305-9.962-0.609c-1.169-0.725-1.594-2.599-2.455-3.885c-0.52-0.774-1.098-1.659-1.873-2.086
		c-2.782-1.53-5.695-2.819-8.49-4.328c-2.39-1.289-3.487-5.065-0.01-6.991c2.741-1.518,5.544-2.535,8.804-2.114
		c2.108,0.272,4.278,0.118,6.417,0.069c0.511-0.012,1.12-0.25,1.501-0.588c2.979-2.651,6.309-3.409,10.34-3.117
		c2.742,0.198,5.443,0.049,8.001,1.225c0.448,0.207,0.96,0.409,1.265,0.766c2.203,2.561,4.919,2.659,8.065,2.31
		c1.906-0.212,4.037,0.532,5.879,1.3c0.809,0.337,1.508,1.768,1.617,2.77c0.248,2.279,1.631,2.909,3.523,3.578
		c2.098,0.741,4.146,1.84,5.951,3.149c3.275,2.376,3.383,4.688-0.885,7.391c-2.258,1.43-5.459,1.369-8.234,1.98
		C163.236,99.231,163.191,99.112,163.146,98.995z"/>
	<path fill-rule="evenodd" clip-rule="evenodd" d="M220.406,59.343c0.279,0.263,0.559,0.526,1.186,1.121
		c0.523-3.153,1.006-5.933,1.441-8.721c0.842-5.393,1.662-10.79,2.473-16.188c0.346-2.288,0.754-4.577,0.889-6.879
		c0.035-0.623-0.678-1.659-1.283-1.896c-5.004-1.949-10.064-3.752-15.105-5.609c-0.363-0.134-0.699-0.34-1.232-0.605
		c3.664-2.459,7.145-4.813,10.658-7.119c0.238-0.156,0.734-0.028,1.07,0.086c5.607,1.905,11.195,3.865,16.818,5.72
		c1.279,0.423,1.637,0.982,1.402,2.328c-1.727,9.913-3.295,19.854-5.092,29.754c-0.672,3.703-2.084,7.082-6.361,8.138
		c-0.729,0.18-1.348,0.79-2.025,1.186c-2.174,1.27-4.414,1.458-6.771,0.509c-5.754-2.314-11.551-4.524-17.271-6.915
		c-4.133-1.727-8.18-3.66-12.252-5.532c-2.434-1.12-2.916-2.174-2.66-4.925c0.709-7.606,1.357-15.22,2.029-22.831
		c0.053-0.616,0.088-1.234,0.133-1.851c0.178,0.013,0.355,0.024,0.535,0.038c-0.289,3.861-0.6,7.72-0.865,11.583
		c-0.254,3.682-0.502,7.366-0.68,11.053c-0.207,4.276-0.186,4.312,3.861,5.855c1.537,0.587,3.148,0.979,4.727,1.459
		c1.979,0.84,3.955,1.68,5.934,2.519c1.736,0.731,3.475,1.462,5.211,2.191C211.584,55.658,215.996,57.5,220.406,59.343z"/>
	<path fill-rule="evenodd" clip-rule="evenodd" d="M53.183,87.392c-3.443,1.846-6.935,3.749-10.456,5.596
		c-1.89,0.991-3.925,1.733-5.722,2.863c-2.465,1.548-4.787,0.468-7.098-0.142c-0.661-0.174-1.363-1.195-1.567-1.955
		c-1.572-5.895-3.048-11.815-4.505-17.738c-0.36-1.467-0.047-2.548,1.592-3.303c5.319-2.448,10.568-5.052,15.808-7.668
		c1.306-0.651,2.417-0.629,3.466,0.337c1.866,1.722,4.646,2.595,5.163,5.579c0.252,1.458,0.555,2.905,0.85,4.354
		C51.499,79.182,52.293,83.047,53.183,87.392z M30.89,82.982c-0.131,0.04-0.262,0.079-0.393,0.12
		c1.243,4.128,2.488,8.257,3.732,12.386c0.143-0.042,0.286-0.086,0.428-0.129C33.401,91.232,32.145,87.107,30.89,82.982z"/>
	<linearGradient id="SVGID_2_" gradientUnits="userSpaceOnUse" x1="69.3447" y1="124.6309" x2="118.8564" y2="124.6309">
		<stop  offset="0" style="stop-color:#2581C4"/>
		<stop  offset="1" style="stop-color:#2581C4;stop-opacity:0"/>
	</linearGradient>
	<path fill-rule="evenodd" clip-rule="evenodd" fill="url(#SVGID_2_)" d="M100.686,108.649c5.232,0,10.465-0.035,15.696,0.055
		c0.543,0.01,1.486,0.715,1.543,1.183c0.414,3.361,0.651,6.742,0.927,10.119c0.026,0.328-0.069,0.664-0.154,1.4
		c-1.364-0.942-2.417-1.886-3.646-2.443c-0.829-0.378-2.185-0.643-2.828-0.225c-8.773,5.729-17.463,11.586-26.169,17.421
		c-0.23,0.153-0.396,0.405-0.85,0.886c1.529,1.122,3.004,2.205,4.866,3.573c-7.043,0-13.663,0-20.726,0
		c0.677-4.315,1.354-8.643,2.078-13.263c0.988,0.563,2.007,0.925,2.737,1.603c1.619,1.5,3.121,1.136,4.734,0.085
		c4.876-3.177,9.767-6.333,14.651-9.496c2.946-1.906,5.844-3.892,8.854-5.69c1.617-0.967,1.944-1.672,0.196-2.79
		c-0.737-0.473-1.317-1.191-1.969-1.797C100.645,109.063,100.666,108.856,100.686,108.649z"/>
	<linearGradient id="SVGID_3_" gradientUnits="userSpaceOnUse" x1="132.3325" y1="139.5508" x2="160.8906" y2="139.5508">
		<stop  offset="0" style="stop-color:#2581C4"/>
		<stop  offset="1" style="stop-color:#2581C4;stop-opacity:0"/>
	</linearGradient>
	<path fill-rule="evenodd" clip-rule="evenodd" fill="url(#SVGID_3_)" d="M152.613,146.737c-0.293-0.239-0.588-0.481-0.881-0.722
		c-0.246,0.388-0.656,0.752-0.713,1.164c-0.613,4.593-1.158,9.194-1.763,13.788c-0.076,0.581-0.389,1.133-0.688,1.962
		c-5.441-3.283-10.693-6.453-15.945-9.621c0.047-0.169,0.094-0.34,0.142-0.509c2.583,0,5.167,0,7.538,0c0-9.401,0-18.543,0-27.573
		c-2.838,0-5.309,0-7.972,0c0.309-0.378,0.521-0.821,0.871-1.036c3.995-2.459,8.013-4.882,12.021-7.319
		c1.42-0.863,2.599-1.041,4.169,0.12c3.519,2.603,7.275,4.89,11.498,7.678c-2.92,0.309-5.195,0.551-7.621,0.807
		c0.299,7.186,0.596,14.315,0.9,21.588c-0.707-0.169-1.164-0.279-1.621-0.389L152.613,146.737z"/>
	<linearGradient id="SVGID_4_" gradientUnits="userSpaceOnUse" x1="171.3887" y1="119.7178" x2="222.5898" y2="119.7178">
		<stop  offset="0" style="stop-color:#2581C4"/>
		<stop  offset="1" style="stop-color:#2581C4;stop-opacity:0"/>
	</linearGradient>
	<path fill-rule="evenodd" clip-rule="evenodd" fill="url(#SVGID_4_)" d="M219.121,120.089c1.178,4.343,2.287,8.432,3.469,12.791
		c-6.576,0.667-12.994,1.319-19.914,2.021c1.602-1.712,2.906-3.105,4.391-4.693c-3.688-2.117-7.063-4.104-10.482-6.01
		c-5.656-3.149-11.391-6.163-16.988-9.411c-2.08-1.205-3.539-0.904-4.9,0.872c-0.436,0.568-0.814,1.183-1.492,2.174
		c-2.301-4.69-0.307-9.094-1.814-13.299c5.838,0,11.457,0,17.5,0c-1.18,1.031-2.107,1.841-3.289,2.876
		c0.574,0.452,1.08,0.985,1.695,1.313c5.766,3.075,11.555,6.109,17.328,9.171c3.098,1.645,6.152,3.378,9.297,4.929
		c0.568,0.278,1.6,0.071,2.199-0.281C217.133,121.946,217.971,121.055,219.121,120.089z"/>
	<linearGradient id="SVGID_5_" gradientUnits="userSpaceOnUse" x1="204.9531" y1="40.4971" x2="225.9258" y2="40.4971">
		<stop  offset="0" style="stop-color:#FFFFFF"/>
		<stop  offset="1" style="stop-color:#000000"/>
	</linearGradient>
	<path fill-rule="evenodd" clip-rule="evenodd" fill="url(#SVGID_5_)" d="M220.406,59.343c-4.41-1.843-8.822-3.685-13.232-5.528
		c-0.686-0.406-1.373-0.813-2.221-1.315c1.186-10.117,2.387-20.355,3.617-30.848c5.945,2.043,11.703,4.023,17.355,5.966
		c-0.857,5.943-1.652,11.575-2.492,17.202c-0.691,4.638-1.42,9.27-2.184,13.896C221.209,58.963,220.697,59.135,220.406,59.343z"/>
	<path fill-rule="evenodd" clip-rule="evenodd" d="M238.846,123.405c2.703,1.276,5.154,2.379,7.555,3.579
		c2.232,1.117,4.352,2.486,6.639,3.469c2.133,0.918,3.438,2.482,4.121,4.524c0.268,0.8,0.131,2.173-0.4,2.733
		c-5.492,5.794-11.021,11.563-16.734,17.137c-1.736,1.695-4.346,1.984-6.516,0.834c-5.15-2.733-10.227-5.629-15.189-8.688
		c-2.561-1.578-2.551-3.46-0.145-5.831c5.303-5.226,10.652-10.408,16.123-15.458C235.463,124.628,237.227,124.197,238.846,123.405z
		 M254.936,135.389c-6.109-3.157-11.996-6.215-17.91-9.212c-0.395-0.199-1.201-0.136-1.51,0.144
		c-2.721,2.469-5.371,5.016-8.318,7.802c6.287,3.403,12.209,6.631,18.168,9.786c0.416,0.219,1.338,0.11,1.656-0.211
		C249.662,141.025,252.217,138.266,254.936,135.389z M249.26,130.715c0.156-0.32,0.313-0.639,0.471-0.957
		c-1.672-0.771-3.344-1.543-5.014-2.314c-0.127,0.266-0.256,0.531-0.383,0.795C245.975,129.063,247.617,129.889,249.26,130.715z"/>
	<linearGradient id="SVGID_6_" gradientUnits="userSpaceOnUse" x1="187.8379" y1="33.2505" x2="206.3047" y2="33.2505">
		<stop  offset="0" style="stop-color:#FFFFFF"/>
		<stop  offset="1" style="stop-color:#000000"/>
	</linearGradient>
	<path fill-rule="evenodd" clip-rule="evenodd" fill="url(#SVGID_6_)" d="M201.963,51.623c-1.979-0.838-3.955-1.679-5.934-2.519
		c-2.055-0.972-4.025-2.264-6.188-2.826c-2.188-0.57-2.092-1.851-1.93-3.452c0.279-2.806,0.588-5.611,0.809-8.423
		c0.488-6.289,0.928-12.582,1.398-18.873c0.014-0.194,0.137-0.38,0.24-0.653c5.021,1.744,10.016,3.454,14.98,5.249
		c0.441,0.159,1.006,0.906,0.963,1.324c-0.896,8.572-1.879,17.134-2.824,25.7c-0.102,0.919,0.088,1.903-0.166,2.763
		C203.121,50.561,202.432,51.06,201.963,51.623z"/>
	<linearGradient id="SVGID_7_" gradientUnits="userSpaceOnUse" x1="49.3823" y1="92.6152" x2="106.9087" y2="92.6152">
		<stop  offset="0" style="stop-color:#2581C4"/>
		<stop  offset="1" style="stop-color:#2581C4;stop-opacity:0"/>
	</linearGradient>
	<path fill-rule="evenodd" clip-rule="evenodd" fill="url(#SVGID_7_)" d="M49.382,92.442c4.759-2.598,9.106-4.973,13.729-7.497
		c-0.18,1.319-0.316,2.317-0.471,3.449c10.979,0,21.809,0,32.848,0c0.264-1.159,0.549-2.413,0.883-3.881
		c3.468,2.438,6.816,4.794,10.537,7.411c-4.273,2.955-8.258,5.711-12.515,8.657c0-1.727,0-3.114,0-4.867
		c-2.191,0.148-4.208,0.331-6.228,0.41c-2.205,0.086-4.415,0.063-6.622,0.109c-6.397,0.135-12.794,0.363-19.191,0.374
		c-2.014,0.004-2.963,0.528-2.68,2.625c0.034,0.251-0.092,0.523-0.284,1.484C55.897,97.831,52.722,95.204,49.382,92.442z"/>
	<linearGradient id="SVGID_8_" gradientUnits="userSpaceOnUse" x1="175.4609" y1="91.1006" x2="232.0527" y2="91.1006">
		<stop  offset="0" style="stop-color:#2581C4"/>
		<stop  offset="1" style="stop-color:#2581C4;stop-opacity:0"/>
	</linearGradient>
	<path fill-rule="evenodd" clip-rule="evenodd" fill="url(#SVGID_8_)" d="M222.83,98.944c-1.605-4.936-1.604-4.922-6.619-4.047
		c-0.693,0.122-1.424,0.047-2.139,0.047c-8.627,0.002-17.254,0.001-26.047,0.001c-0.096,1.232-0.18,2.304-0.285,3.652
		c-4.158-2.525-8.08-4.909-12.279-7.461c3.504-2.389,6.723-4.582,9.998-6.816c0.289,1.121,0.246,2.487,0.879,2.978
		c0.691,0.536,2.01,0.331,3.055,0.333c9.82,0.017,19.639,0.01,29.785,0.01c-0.217-1.727-0.361-2.855-0.555-4.384
		c4.541,2.47,8.799,4.784,13.43,7.303C228.838,93.483,225.887,96.166,222.83,98.944z"/>
	<path fill-rule="evenodd" clip-rule="evenodd" d="M91.609,48.804c0.334,0.034,0.668,0.068,1.001,0.101
		c-0.16,0.893-0.082,1.952-0.552,2.63c-0.425,0.615-1.45,0.814-2.211,1.194c-4.632,2.317-9.271,4.623-13.893,6.958
		c-1.477,0.747-2.794,0.877-4.344-0.047c-2.674-1.595-5.503-2.924-8.246-4.407c-0.469-0.253-0.827-0.711-1.236-1.074
		c0.456-0.132,1.274-0.207,1.306-0.407c0.136-0.854,0.4-2.145-0.042-2.542c-1.138-1.023-2.627-1.657-3.978-2.447
		c-0.925,1.785-0.426,3.104,0.752,4.283c-1.194-0.205-1.849-0.763-1.767-2.124c0.077-1.286-0.054-2.343,1.546-3.05
		c5.493-2.421,10.877-5.088,16.334-7.594c0.537-0.246,1.421-0.267,1.918,0.012c4.193,2.337,8.344,4.751,12.474,7.201
		c0.438,0.26,0.658,0.891,0.97,1.342c-0.808,0.149-1.686,0.142-2.393,0.486c-4.061,1.98-8.08,4.04-12.107,6.084
		c-0.297,0.151-0.545,0.397-0.817,0.6c0.052,0.068,0.105,0.136,0.158,0.206C81.526,53.74,86.567,51.271,91.609,48.804z"/>
	<path fill-rule="evenodd" clip-rule="evenodd" d="M133.024,37.731c-1.725,0.95-2.955,2.201-4.083,2.117
		c-1.797-0.135-3.728-0.872-5.215-1.909c-1.002-0.698-0.256-1.991,0.931-2.429c0.685-0.253,1.468-0.24,2.778-0.43
		c-2.035-1.021-3.653-1.698-5.116-2.623c-0.729-0.46-1.237-1.332-1.716-2.098c-0.195-0.311-0.053-0.837-0.053-1.264
		c-0.001-3.13-0.001-6.259-0.001-9.68c3.646,1.514,7.152,2.973,10.659,4.426c0.654,0.271,1.392,0.417,1.954,0.815
		c0.996,0.705,1.886,1.559,3.237,2.702c1.963-0.99,4.471-2.272,6.996-3.519c1.168-0.577,6.448,0.866,7.015,1.937
		c0.182,0.345,0.123,0.835,0.125,1.259c0.023,3.424,0.195,6.858-0.01,10.269c-0.135,2.237-0.717,4.439-3.412,5.245
		c-1.902,0.567-3.686,1.529-5.586,2.105c-3.911,1.188-6.79-0.818-7.157-4.854C134.211,38.073,134.211,38.073,133.024,37.731z
		 M121.369,21.033c0.183,3.47,0.318,6.5,0.536,9.523c0.026,0.372,0.409,0.892,0.758,1.042c3.634,1.565,7.295,3.068,11.292,4.732
		c0-3.425,0-6.516,0-9.955C130.097,24.74,125.926,22.969,121.369,21.033z"/>
	<linearGradient id="SVGID_9_" gradientUnits="userSpaceOnUse" x1="108.4717" y1="97.4717" x2="175.0703" y2="97.4717">
		<stop  offset="0" style="stop-color:#2581C4"/>
		<stop  offset="1" style="stop-color:#2581C4;stop-opacity:0"/>
	</linearGradient>
	<path fill-rule="evenodd" clip-rule="evenodd" fill="url(#SVGID_9_)" d="M108.641,86.109c2.869,3.482,6.981,4.327,10.475,6.242
		c0.779,0.427,1.601,1.272,1.845,2.091c1.037,3.461,2.817,5.071,6.405,5.181c2.671,0.082,5.339,0.196,7.903-1.031
		c0.633-0.304,1.863,0.177,2.592,0.647c1.035,0.67,1.829,1.699,2.778,2.513c2.999,2.57,9.831,3.039,13.17-1.757
		c0.922-1.322,1.875-1.11,3.207-1.04c4.047,0.213,8.156,0.513,12.146,0.019c2.037-0.251,3.871-2.129,5.645-3.184
		c0.982,4.156-0.758,7.166-5.574,8.105c-3.443,0.671-7.066,0.537-10.607,0.527c-2.557-0.009-4.822,0.004-6.496,2.493
		c-1.841,2.741-8.435,2.325-11.181,0.141c-0.334-0.265-0.672-0.531-0.979-0.827c-2.326-2.251-4.887-2.167-7.974-1.605
		c-4.377,0.797-8.961,0.934-11.089-5.402c-0.409-1.217-2.328-2.029-3.68-2.802c-2.07-1.185-4.328-2.051-6.37-3.278
		C108.249,91.574,108.293,88.963,108.641,86.109z"/>
	<linearGradient id="SVGID_10_" gradientUnits="userSpaceOnUse" x1="83.2544" y1="66.9922" x2="120.9297" y2="66.9922">
		<stop  offset="0" style="stop-color:#2581C4"/>
		<stop  offset="1" style="stop-color:#2581C4;stop-opacity:0"/>
	</linearGradient>
	<path fill-rule="evenodd" clip-rule="evenodd" fill="url(#SVGID_10_)" d="M83.254,65.514c0.469-2.832,0.812-5.32,1.352-7.765
		c0.095-0.428,1.013-0.949,1.56-0.959c4.493-0.077,8.987-0.043,13.669,0.383c-1.152,0.649-2.305,1.301-3.683,2.078
		c1.964,1.17,3.826,2.341,5.743,3.408c4.235,2.355,8.459,4.735,12.784,6.912c0.762,0.383,2.062,0.003,2.996-0.34
		c0.993-0.365,1.846-1.108,3.253-1.997c-0.153,2.448-0.136,4.383-0.421,6.273c-0.518,3.437-0.594,3.361-4.265,3.479
		c-3.901,0.125-7.797,0.388-11.89,0.13c0.962-0.702,1.924-1.403,3.191-2.328c-1.84-1.164-3.486-2.276-5.198-3.274
		C98.033,69,93.727,66.462,89.32,64.114c-0.841-0.448-2.159-0.248-3.188-0.026C85.214,64.286,84.394,64.927,83.254,65.514z"/>
	<linearGradient id="SVGID_11_" gradientUnits="userSpaceOnUse" x1="166.4922" y1="65.6074" x2="203.9609" y2="65.6074">
		<stop  offset="0" style="stop-color:#2581C4"/>
		<stop  offset="1" style="stop-color:#2581C4;stop-opacity:0"/>
	</linearGradient>
	<path fill-rule="evenodd" clip-rule="evenodd" fill="url(#SVGID_11_)" d="M180.299,73.755c1.609,0.771,2.965,1.419,4.322,2.069
		c-0.01,0.128-0.02,0.256-0.031,0.384c-5.547,0-11.094,0-16.721,0c-0.428-2.746-0.875-5.632-1.377-8.863
		c1.271,0.694,2.287,1.421,3.416,1.806c0.764,0.259,1.9,0.364,2.512-0.023c5.576-3.538,11.072-7.2,16.824-10.978
		c-1.348-0.833-2.549-1.578-3.752-2.322c0.002-0.145,0.008-0.29,0.012-0.435c1.717,0,3.436,0.052,5.152-0.013
		c2.41-0.089,4.816-0.312,7.227-0.372c0.561-0.014,1.398,0.236,1.652,0.648c1.549,2.505,2.965,5.093,4.426,7.653
		c-0.129,0.171-0.258,0.343-0.387,0.515c-1.383-0.53-2.746-1.112-4.154-1.56c-0.52-0.167-1.275-0.236-1.693,0.024
		c-5.551,3.463-11.063,6.99-16.574,10.513C180.93,72.944,180.781,73.208,180.299,73.755z"/>
	<path fill-rule="evenodd" clip-rule="evenodd" d="M35.612,169.824c-1.232-0.597-2.169-0.841-2.829-1.407
		c-2.594-2.229-5.11-4.551-7.637-6.859c-1.463-1.336-1.101-2.809,0.143-3.901c1.97-1.732,4.045-3.386,6.249-4.806
		c6.7-4.322,13.459-8.556,20.253-12.731c1.372-0.844,2.959-1.657,4.512-1.803c1.564-0.145,3.446,0.169,4.766,0.977
		c2.599,1.592,4.876,3.702,7.341,5.521c1.619,1.194,1.572,2.481,0.289,3.753c-1.255,1.245-2.578,2.464-4.038,3.448
		c-7.256,4.893-14.516,9.787-21.891,14.497C40.538,167.938,37.929,168.773,35.612,169.824z M65.979,149.845
		c-4.033-3.176-7.638-6.063-11.328-8.84c-0.362-0.272-1.343-0.027-1.869,0.272c-2.46,1.407-4.878,2.888-7.277,4.398
		c-4.686,2.949-9.349,5.937-14.832,9.425c1.201,0.818,2.136,1.34,2.935,2.021c2.604,2.223,5.238,4.417,7.693,6.795
		c1.137,1.101,1.93,0.992,3.098,0.207c3.776-2.534,7.616-4.973,11.412-7.478C59.063,154.5,62.289,152.314,65.979,149.845z"/>
	<linearGradient id="SVGID_12_" gradientUnits="userSpaceOnUse" x1="133.6162" y1="57.7593" x2="155.7969" y2="57.7593">
		<stop  offset="0" style="stop-color:#2581C4"/>
		<stop  offset="1" style="stop-color:#2581C4;stop-opacity:0"/>
	</linearGradient>
	<path fill-rule="evenodd" clip-rule="evenodd" fill="url(#SVGID_12_)" d="M149.565,64.531c2.277,0,4.156,0,6.039,0
		c0.063,0.185,0.129,0.37,0.193,0.554c-1.627,0.966-3.256,1.932-4.884,2.899c-0.908,0.539-1.852,1.03-2.714,1.633
		c-1.824,1.273-3.46,1.483-5.567,0.242c-2.884-1.698-6.06-2.9-9.015-4.829c1.844,0,3.689,0,5.66,0c0-5.234,0-10.193,0-15.438
		c-1.857,0.119-3.599,0.228-5.341,0.34c-0.051-0.189-0.103-0.38-0.155-0.57c1.267-0.612,2.671-1.043,3.776-1.871
		c4.555-3.412,8.988-3.697,13.504,0.044c0.789,0.653,1.846,0.984,2.76,1.876c-1.398,0.08-2.797,0.161-4.255,0.245
		C149.565,54.549,149.565,59.349,149.565,64.531z"/>
	<path fill-rule="evenodd" clip-rule="evenodd" d="M152.549,146.675c2.682,1.898,5.342,3.831,8.055,5.686
		c4.547,3.107,9.152,6.128,13.658,9.292c0.531,0.374,0.939,1.473,0.824,2.134c-0.916,5.267-1.756,10.565-3.105,15.728
		c-0.455,1.738-2.17,3.26-3.564,4.617c-2.795,2.718-5.838,5.183-8.637,7.898c-1.516,1.47-2.826,1.563-4.465,0.328
		c-6.582-4.966-13.201-9.884-19.784-14.848c-0.875-0.66-1.72-1.789-0.692-2.641c4.21-3.489,8.569-6.798,12.87-10.17
		c-0.818,0.77-1.591,1.586-2.451,2.295c-3.24,2.677-6.506,5.317-10.165,8.298c7.597,5.645,14.939,11.102,22.478,16.702
		c4.396-4.11,8.758-8.187,13.133-12.274c-5.871-4.143-11.445-8.2-17.166-12.04c-1.797-1.206-3.351-3.137-5.897-2.913
		c2.511-1.227,2.074-3.771,2.447-5.843c0.621-3.444,0.867-6.954,1.39-10.42c0.094-0.63,0.748-1.175,1.141-1.764
		C152.613,146.737,152.549,146.675,152.549,146.675z M170.604,176.788c0.768-4.239,1.518-8.303,2.232-12.372
		c0.234-1.333,0.002-2.351-1.367-3.189c-3.465-2.117-6.787-4.464-10.18-6.696c-2.783-1.832-5.586-3.634-8.398-5.461
		c-0.662,4.356-1.344,8.466-1.859,12.596c-0.097,0.78,0.215,2.017,0.779,2.409C157.99,168.362,164.258,172.523,170.604,176.788z"/>
	<path fill-rule="evenodd" clip-rule="evenodd" d="M188.959,13.613c4.227-2.174,8.01-4.137,11.813-6.061
		c0.41-0.208,1.002-0.389,1.395-0.253c5.447,1.875,10.873,3.808,16.303,5.733c0.051,0.018,0.072,0.119,0.166,0.29
		c-3.256,2.153-6.484,4.369-9.814,6.419c-0.631,0.388-1.762,0.37-2.506,0.103c-4.98-1.784-9.918-3.693-14.877-5.542
		C190.793,14.061,190.109,13.929,188.959,13.613z"/>
	<path fill-rule="evenodd" clip-rule="evenodd" d="M230.855,95.41c1.924-1.53,3.211-2.937,4.807-3.657
		c0.773-0.349,2.168,0.498,3.211,0.964c5.014,2.248,10.039,4.48,14.982,6.877c1.547,0.747,2.859,1.979,4.256,3.021
		c0.199,0.149,0.346,0.474,0.371,0.731c0.131,1.3-2.9,3.738-4.111,3.174C246.754,102.977,239.174,99.351,230.855,95.41z"/>
	<path fill-rule="evenodd" clip-rule="evenodd" d="M243.65,69.926c8.344,3.346,16.338,6.517,24.285,9.81
		c0.631,0.262,1.42,1.494,1.279,2.061c-1.172,4.686-2.545,9.321-3.984,14.419c-3.467-1.462-6.777-2.857-10.234-4.314
		c0,1.144,0,2.048,0,2.952c0.158,0.048,0.318,0.097,0.479,0.146c0.332-0.506,0.664-1.011,1.295-1.97
		c0.236,1.158,0.398,1.945,0.604,2.956c-4.125,0.522-7.58-0.328-10.561-2.841c-0.393-0.331-0.453-1.053-0.668-1.594
		c0.523,0.158,1.063,0.28,1.57,0.479c0.879,0.343,1.924,1.219,2.563,0.978c0.742-0.278,1.121-1.519,1.766-2.508
		c-3.285-1.594-6.146-3.113-9.121-4.367c-1.494-0.631-2.025-1.112-1.611-2.929C242.293,78.902,242.871,74.508,243.65,69.926z
		 M244.721,71.674c-0.703,3.717-1.188,7.169-2.057,10.518c-0.457,1.753,0.072,2.314,1.547,2.973c4.318,1.93,8.549,4.054,12.83,6.071
		c2.422,1.141,4.873,2.221,7.309,3.328c1.027-3.882,1.98-7.604,3.014-11.301c0.357-1.284,0.25-2.091-1.201-2.571
		c-1.451-0.48-2.795-1.279-4.213-1.872C256.324,76.471,250.688,74.146,244.721,71.674z"/>
	<path fill-rule="evenodd" clip-rule="evenodd" d="M108.421,39.392c3.271-3.171,4.849-3.434,8.384-1.774
		c3.158,1.483,6.358,2.877,9.513,4.367c0.531,0.25,1.337,0.851,1.289,1.187c-0.084,0.578-0.637,1.221-1.167,1.583
		c-2.118,1.446-4.213,1.958-6.715,0.473c-2.747-1.629-5.765-2.795-8.641-4.208C110.222,40.596,109.435,40.017,108.421,39.392z"/>
	<path fill-rule="evenodd" clip-rule="evenodd" d="M127.159,48.417c-0.571-0.786-1.268-1.456-1.156-1.645
		c0.326-0.549,0.943-1.185,1.511-1.253c0.471-0.056,1.033,0.644,1.554,1.008C128.518,47.071,127.969,47.614,127.159,48.417z"/>
	<path fill-rule="evenodd" clip-rule="evenodd" d="M167.668,179.995c-1.98,1.757-3.688,3.365-5.518,4.816
		c-0.432,0.342-1.496,0.448-1.914,0.156c-5.871-4.094-11.679-8.277-18.017-12.804c2.406-2.048,4.302-3.698,6.257-5.275
		c0.211-0.17,0.861-0.039,1.154,0.17C155.576,171.293,161.498,175.559,167.668,179.995z"/>
	<path fill-rule="evenodd" clip-rule="evenodd" d="M152.502,180.971c-0.695,1.821-1.728,1.873-3.011,0.919
		c-0.623-0.462-1.376-0.848-1.791-1.459c-0.369-0.549-0.355-1.357-0.51-2.052c0.678,0.016,1.49-0.202,2.001,0.096
		C150.338,179.141,151.334,180.064,152.502,180.971z"/>
</g>
</svg>
