<?xml version="1.0" encoding="utf-8"?>
<!-- Generator: Adobe Illustrator 16.0.0, SVG Export Plug-In . SVG Version: 6.00 Build 0)  -->
<!DOCTYPE svg PUBLIC "-//W3C//DTD SVG 1.1//EN" "http://www.w3.org/Graphics/SVG/1.1/DTD/svg11.dtd">
<svg version="1.1" id="Capa_1" xmlns="http://www.w3.org/2000/svg" xmlns:xlink="http://www.w3.org/1999/xlink" x="0px" y="0px"
	 width="1276.826px" height="2043.923px" viewBox="1371.928 -22.04 1276.826 2043.923"
	 enable-background="new 1371.928 -22.04 1276.826 2043.923" xml:space="preserve">
<g>
</g>
<g>
	<path fill-rule="evenodd" clip-rule="evenodd" d="M1734.098,1382.722c11.211,0,17.259,0.019,23.303,0
		c34.898-0.129,35.92,0.244,47.542-31.62c27.581-75.634,55.604-151.178,79.9-227.882c5.501-17.378-1.196-39.913-6.307-58.996
		c-5.366-20.055-0.572-32.393,18.951-36.753c13.296-2.969,17.243-11.735,19.064-22.469c9.829-58,21.726-115.787,28.273-174.172
		c13.66-121.794,24.782-243.874,36.205-365.905c5.364-57.305,9.368-114.752,13.021-172.192c0.491-7.717-6.409-15.674-6.986-23.729
		c-1.729-24.138-2.213-48.374-2.62-72.585c-0.044-2.776,4.457-5.392,5.168-8.467c5.516-23.928,5.387-23.96,26.773-27.501
		c2.846-36.62,5.706-73.466,8.572-110.313c1.526-0.005,3.053-0.008,4.579-0.012c3.501,36.456,7.001,72.91,10.646,110.884
		c13.208,2.608,33.496,0.756,23.999,25.677c18.316,16.122,10.228,37.646,10.733,57c0.241,9.254-5.174,18.562-7.335,28.008
		c-1.767,7.713-3.944,15.749-3.492,23.499c6.02,103.422,10.147,207.028,19.463,310.164c9.611,106.45,23.943,212.488,37.173,318.59
		c3.504,28.114,10.813,55.745,15.812,83.697c1.822,10.181,4.818,16.197,16.771,18.612c16.547,3.343,27.016,11.993,21.434,33.189
		c-13.019,49.455-5.71,97.233,14.002,144.307c22.464,53.661,42.946,108.177,63.147,162.741c5.868,15.85,14.301,22.544,31.091,20.21
		c9.241-1.282,18.807-0.23,31.927-0.23c0,30.958-0.632,60.346,0.317,89.688c0.365,11.294,1.291,24.45,7.115,33.412
		c93.049,143.152,186.939,285.764,280.617,428.516c3.954,6.021,7.672,12.199,12.939,20.596c-76.592,0-150.039,0-225.359,0
		c-6.963-126.502-53.216-234.36-158.855-309.447c-64.775-46.041-138.258-71.87-218.921-69.72
		c-212.563,5.667-355.135,178.724-350.471,362.977c-78.987,0-157.962,0-239.478,0c4.136-6.245,7.926-12.203,11.943-18.001
		c96.907-139.782,194.017-279.424,290.333-419.609c6.138-8.927,8.155-21.982,8.613-33.266
		C1734.886,1442.876,1734.098,1414.052,1734.098,1382.722z M2002.81,373.006c4.821,11.052,9.645,22.108,14.471,33.159
		c1.913-0.989,3.827-1.976,5.743-2.961c-2.663-12.688,3.925-31.505-20.947-29.471c5.581-9.339,11.166-18.678,16.752-28.016
		c-3.329-1.889-6.658-3.775-9.987-5.66c-4.878,9.836-9.752,19.671-14.63,29.507C1997.076,370.71,1999.943,371.849,2002.81,373.006z
		 M1995.01,503.757c-14.301-4.844-13.13,6.808-12.031,13.441c3.103,18.716,17.054,15.912,31.618,13.906
		c-7.588-9.999-14.31-18.857-21.033-27.72c9.336,6.288,18.676,12.569,27.925,18.794c2.951-29.08-1.868-33.617-30.478-27.307
		C1992.403,497.959,1993.704,500.861,1995.01,503.757z M2055.064,755.331c12.772,9.843,25.546,19.686,39,30.052
		c-6.394-47.831-7.779-49.084-48.205-43.561c3.444,4.962,6.647,9.572,9.846,14.194c-6.274-3.174-12.549-6.348-19.771-10.009
		c2.201,12.413,4.125,23.225,6.042,34.036c2.488,0.288,4.975,0.57,7.457,0.853C2051.311,772.374,2053.185,763.853,2055.064,755.331z
		 M1918.433,1382.42c68.281,0,136.548,0,206.35,0c-15.835-79.212-31.42-157.173-47.325-236.744c-31.329,0-62.428-0.577-93.462,0.609
		c-4.785,0.183-12.168,7.74-13.452,13.072C1952.823,1232.948,1935.954,1306.748,1918.433,1382.42z M2148.271,1038.461
		c-81.046,0-159.921,0-238.431,0c0,8.101,0,14.642,0,21.77c79.934,0,158.856,0,238.431,0
		C2148.271,1052.49,2148.271,1045.923,2148.271,1038.461z M1901.577,1122.389c-0.507,2.652-1.012,5.3-1.518,7.949
		c5.831,1.439,11.654,4.096,17.488,4.122c70.26,0.289,140.523,0.186,210.787,0.186c7.926,0,15.852,0,23.777,0
		c0.506-2.646,1.008-5.296,1.516-7.938c-5.828-1.442-11.651-4.098-17.486-4.122c-70.262-0.29-140.522-0.193-210.787-0.197
		C1917.428,1122.389,1909.503,1122.389,1901.577,1122.389z M2060.048,251.097c1.649-1.92,3.3-3.839,4.953-5.758
		c-4.506-3.351-8.817-9.235-13.547-9.585c-16.174-1.205-32.504-0.1-48.76-0.58c-12.963-0.382-14.495,5.256-10.469,15.923
		C2015.499,251.097,2037.776,251.097,2060.048,251.097z M2136.927,1344.613c11.572-10.228,21.429-18.935,32.22-28.471
		c-14.941-8.516-28.481-16.226-45.955-26.182C2128.606,1311.5,2132.803,1328.204,2136.927,1344.613z M1878.902,1316.918
		c11.403,10.837,20.917,19.878,32.391,30.788c4.976-19.778,9.214-36.636,14.546-57.835
		C1908.279,1299.989,1895.005,1307.64,1878.902,1316.918z M2002.62,799.921c-49.387-6.738-48.87,7.079-50.98,45.34
		C1968.69,830.099,1984.604,815.948,2002.62,799.921z M2053.846,906.174c14.806-17.178,27.12-31.465,40.222-46.662
		C2050.517,854.888,2047.315,858.376,2053.846,906.174z M2232.677,1344.914c-7.865-21.725-13.875-38.314-19.483-53.807
		c-10.005,8.247-19.212,15.839-29.844,24.608C2199.555,1325.306,2213.729,1333.699,2232.677,1344.914z M1818.449,1339.303
		c1.221,0.819,2.438,1.633,3.661,2.45c13.925-8.48,27.848-16.964,39-23.757c-8.317-10.262-15.682-19.344-24.249-29.914
		C1830.099,1306.89,1824.273,1323.099,1818.449,1339.303z M1958.521,786.456c18.066-16.287,33.359-30.067,49.772-44.864
		C1968.985,736.839,1960.175,740.376,1958.521,786.456z M1957.353,859.218c13.996,15.549,26.034,28.924,38.699,43.001
		C2007.606,857.647,2005.581,855.306,1957.353,859.218z M2114.054,1271.05c11.711-10.981,20.649-19.372,30.684-28.79
		c-14.162-8.44-26.263-15.646-42.309-25.202C2106.786,1237.286,2110.013,1252.262,2114.054,1271.05z M2050.804,799.311
		c16.549,14.333,32.09,27.791,48.576,42.067C2099.326,798.843,2093.589,793.863,2050.804,799.311z M2074.856,684.009
		c-53.044-4.06-46.064,6.062-36.481,42.105C2050.634,711.967,2061.825,699.048,2074.856,684.009z M1903.94,1242.785
		c11.293,10.083,20.454,18.256,31.315,27.957c4.008-19.262,7.188-34.52,11.277-54.148
		C1930.132,1226.677,1918.157,1234.044,1903.94,1242.785z M2202.404,1270.403c-6.37-19.705-11.405-35.261-17.335-53.607
		c-10.027,9.529-17.847,16.967-27.013,25.686C2173.189,1252.009,2185.937,1260.036,2202.404,1270.403z M2063.298,542.281
		c-0.837-2.382-1.674-4.761-2.508-7.14c-9.017,3.078-20.364,3.894-26.281,9.985c-4.373,4.501-5.191,20.245-1.404,23.287
		c7.968,6.41,20.004,7.77,30.367,11.203c0.837-1.955,1.674-3.912,2.51-5.865c-6.624-5.723-13.249-11.446-20.598-17.792
		C2051.957,550.943,2057.626,546.612,2063.298,542.281z M1847.756,1270.21c15.774-10.312,28.77-18.808,43.29-28.292
		c-9.713-9.041-17.247-16.055-26.787-24.931c-4.723,13.797-8.49,24.384-11.943,35.069
		C1850.738,1256.944,1849.783,1262.022,1847.756,1270.21z M1988.606,571.963c1.566,2.516,3.133,5.028,4.697,7.539
		c9.5-3.607,21.112-5.094,27.678-11.648c3.728-3.715,2.209-19.091-2.357-23.195c-6.546-5.878-18.036-6.252-27.411-8.973
		c-0.737,2.241-1.476,4.479-2.212,6.719c6.531,4.11,13.06,8.215,23.624,14.863C2004,562.546,1996.302,567.253,1988.606,571.963z
		 M2014.597,724.543c11.202-35.391,1.859-45.688-34.88-39.059C1991.46,698.634,2002.732,711.264,2014.597,724.543z
		 M2016.034,632.789c-39.486-5.293-47.683,2.404-41.415,38.105C1988.434,658.182,2001.765,645.923,2016.034,632.789z
		 M2273.972,1391.933c-8.858,0.549-15.284,0.946-22.313,1.379c0,12.104,0,22.615,0,34.193c7.8,0,14.687,0,22.313,0
		C2273.972,1415.678,2273.972,1405.185,2273.972,1391.933z M2062.727,205.337c-32.171-7.029-67.266-3.605-71.767,7.002
		C2023.002,219.407,2058.213,215.971,2062.727,205.337z M2245.492,1392.097c-8.558,0.403-15.45,0.73-21.806,1.032
		c0,13.157,0,23.696,0,34.723c7.798,0,14.281,0,21.806,0C2245.492,1416.324,2245.492,1405.761,2245.492,1392.097z
		 M2195.678,1392.776c0,12.954,0,23.874,0,36.103c8.057-0.38,14.456-0.68,21.01-0.988c0-12.517,0-23.52,0-35.114
		C2209.337,1392.776,2203.424,1392.776,2195.678,1392.776z M2021.139,1427.908c0-12.438,0-23.445,0-35.812
		c-7.979,0.358-14.411,0.653-21.321,0.968c0,12.523,0,23.578,0,35.821C2007.738,1428.522,2014.229,1428.224,2021.139,1427.908z
		 M1971.145,1392.809c0,12.644,0,23.147,0,34.677c7.91,0,14.798,0,21.541,0c0-12.434,0-23.456,0-34.677
		C1985.111,1392.809,1979.158,1392.809,1971.145,1392.809z M1775.398,1428.98c8.404-0.454,14.888-0.801,21.69-1.167
		c0-12.414,0-23.354,0-35.691c-8.073,0.386-14.48,0.688-21.69,1.026C1775.398,1405.146,1775.398,1415.674,1775.398,1428.98z
		 M1769.753,1393.898c-9.006,0-15.924,0-22.501,0c0,12.357,0,22.928,0,34.942c8.326-0.425,15.284-0.78,22.501-1.148
		C1769.753,1415.323,1769.753,1405.289,1769.753,1393.898z M1634.318,1669.494c8.315,12.526,15.345,23.113,23.38,35.213
		c7.821-12.57,14.046-22.561,21.92-35.213C1663.398,1669.494,1650.927,1669.494,1634.318,1669.494z M2302.7,1393.68
		c-8.555,0-15.465,0-22.539,0c0,12.106,0,22.692,0,33.646c7.991,0,14.924,0,22.539,0C2302.7,1415.804,2302.7,1405.78,2302.7,1393.68
		z M2049.813,1427.826c0-12.55,0-23.021,0-34.188c-8.054,0-14.915,0-22.009,0c0,12.092,0,22.646,0,34.188
		C2035.233,1427.826,2041.708,1427.826,2049.813,1427.826z M1804.449,1392.676c0,13.174,0,24.2,0,36.375
		c7.955-0.545,14.378-0.981,20.784-1.421c0-12.581,0-23.501,0-34.954C1817.604,1392.676,1811.688,1392.676,1804.449,1392.676z
		 M2048.912,520.131c-5.749-8.19-10.184-14.514-14.618-20.836c-2.275,1.649-4.555,3.299-6.828,4.944
		c4.741,9.195,7.713,20.418,14.96,26.743c3.729,3.257,17.701,0.308,22.257-4.438c4.797-4.995,3.887-15.474,5.469-23.561
		c-1.916-0.413-3.834-0.83-5.754-1.248C2060.3,506.604,2056.202,511.471,2048.912,520.131z M2467.405,1767.046
		c-17.501,0.781-31.307,1.397-48.533,2.167c8.98,13.466,15.608,23.396,23.364,35.018
		C2451.36,1790.752,2458.302,1780.498,2467.405,1767.046z M2056.825,1392.769c0,13.2,0,24.183,0,36.32
		c8.002-0.583,14.404-1.051,20.619-1.5c0-12.624,0-23.501,0-34.82C2069.773,1392.769,2063.874,1392.769,2056.825,1392.769z
		 M1776.303,1624.538c-16.962,0-30.538,0-47.906,0c9.885,12.42,17.484,21.962,26.172,32.875
		C1762.312,1645.704,1768.495,1636.349,1776.303,1624.538z M2086.434,1146.679c4.354,19.267,7.497,33.178,11.256,49.828
		c10.472-9.439,18.63-16.794,28.067-25.302C2112.507,1162.938,2101.781,1156.251,2086.434,1146.679z M1943.682,1392.738
		c0,11.934,0,23.303,0,36.088c7.895-0.357,14.258-0.642,20.78-0.936c0-12.556,0-23.571,0-35.152
		C1957.199,1392.738,1951.302,1392.738,1943.682,1392.738z M1923.168,1171.377c10.616,9.358,18.795,16.569,28.594,25.212
		c3.692-17.761,6.627-31.852,10.288-49.444C1947.849,1155.994,1936.759,1162.907,1923.168,1171.377z M1593.055,1804.249
		c8.147-12.426,14.893-22.718,23.123-35.279c-17.574,0-31.181,0-47.431,0C1577.19,1781.223,1584.003,1791.115,1593.055,1804.249z
		 M2404.703,1847.239c8.929-10.818,16.208-19.642,26.048-31.563c-18.303,0-31.799,0-48.253,0
		C2390.071,1826.437,2396.445,1835.504,2404.703,1847.239z M2362.863,1669.062c7.371,12.229,13.676,22.689,21.15,35.091
		c8.275-12.465,15.071-22.686,23.303-35.091C2391.581,1669.062,2379.17,1669.062,2362.863,1669.062z M1979.521,589.363
		c-12.931,29.693-0.151,41.479,35.271,32.018C2002.929,610.611,1991.86,600.565,1979.521,589.363z M1652.423,1816.101
		c-15.886,0-29.6,0-47.713,0c9.781,11.965,17.133,20.955,25.517,31.208C1637.759,1836.719,1644.305,1827.515,1652.423,1816.101z
		 M1580.771,1804.916c-7.985-11.855-14.106-20.948-21.449-31.849c-8.76,11.124-15.848,20.12-25.081,31.849
		C1551.541,1804.916,1564.507,1804.916,1580.771,1804.916z M2369.173,1773.631c18.82,8.204,37.645,16.406,57.299,24.97
		C2417.93,1763.628,2393.485,1767.872,2369.173,1773.631z M1681.596,1704.127c42.585,4.835,42.585,4.835,52.658-25.842
		C1715.841,1687.321,1698.718,1695.722,1681.596,1704.127z M2311.295,1625.058c-16.968,0-29.188,0-44.463,0
		c7.026,10.957,12.862,20.057,19.897,31.025C2295.22,1645.359,2301.972,1636.833,2311.295,1625.058z M2079.503,669.032
		c1.681-37.682-6.582-44.402-38.215-34.852C2053.384,645.211,2065.282,656.064,2079.503,669.032z M1870.514,1197.045
		c16.033-10.33,27.64-17.807,40.876-26.331c-8.827-8.32-15.807-14.9-24.566-23.158
		C1881.296,1164.329,1876.785,1178.021,1870.514,1197.045z M2454.86,1804.375c16.513,0,29.527,0,46.192,0
		c-9.593-11.802-16.894-20.785-25.447-31.315C2468.275,1784.128,2462.125,1793.413,2454.86,1804.375z M2037.509,622.337
		c39.936,5.052,42.686,2.423,37.092-32.589C2062.622,600.271,2051.288,610.229,2037.509,622.337z M1665.534,1773.683
		c-24.842-6.36-48.442-8.319-57.369,25.55C1628.384,1790.226,1646.96,1781.954,1665.534,1773.683z M1516.876,1848.207
		c40.686,7.194,44.119,5.629,59.506-27.126C1556.061,1830.345,1537.729,1838.697,1516.876,1848.207z M2178.431,1196.956
		c-6.242-18.936-10.862-32.949-16.313-49.479c-9.333,8.895-15.963,15.21-24.338,23.185
		C2151.044,1179.239,2162.568,1186.693,2178.431,1196.956z M2345.232,1578.132c-16.102,0-28.478,0-44.063,0
		c7.59,12.32,13.639,22.144,20.853,33.85C2330.112,1600.184,2337.099,1590,2345.232,1578.132z M1625.234,1674.874
		c-7.598,9.945-14.353,18.794-23.322,30.533c15.954,0.772,28.538,1.382,43.929,2.122c-4.784-8.327-7.553-13.534-10.688-18.504
		C1632.397,1684.66,1629.237,1680.545,1625.234,1674.874z M2359.099,1776.596c14.158,32.547,21.366,35.763,56.73,26.052
		C2396.649,1793.842,2378.817,1785.648,2359.099,1776.596z M1617.53,1803.644c41.081,6.915,46.867,4.161,57.019-26.428
		C1655.658,1785.971,1637.745,1794.273,1617.53,1803.644z M2518.729,1848.269c-21.665-9.822-39.957-18.122-61.249-27.779
		C2475.962,1854.811,2476.513,1855.062,2518.729,1848.269z M2032.101,358.745c-3.462,27.296,16.688,35.132,29.338,50.477
		C2068.909,381.749,2047.176,374.752,2032.101,358.745z M1832.512,1428.676c6.918-0.4,12.499-0.719,17.871-1.03
		c0-12.647,0-23.652,0-34.453c-6.645,0-11.751,0-17.871,0C1832.512,1404.652,1832.512,1415.146,1832.512,1428.676z
		 M2133.789,1026.24c-3.727-16.697-6.06-27.169-9.131-40.948c-9.867,11.207-16.884,19.188-26.919,30.593
		C2110.22,1019.469,2119.569,1022.156,2133.789,1026.24z M2159.983,1427.633c0-11.886,0-22.943,0-35.382
		c-6.834,0.413-12.409,0.749-18.359,1.114c0,12.101,0,22.637,0,34.268C2148.039,1427.633,2153.628,1427.633,2159.983,1427.633z
		 M1889.377,1428.896c7.192-0.563,12.784-0.999,18.543-1.451c0-12.13,0-22.645,0-34.208c-6.499,0-12.067,0-18.543,0
		C1889.377,1404.79,1889.377,1415.315,1889.377,1428.896z M1707.454,1613.567c-7.641-11.729-13.502-20.727-20.354-31.234
		c-8.275,11.099-14.838,19.897-23.289,31.234C1679.538,1613.567,1691.728,1613.567,1707.454,1613.567z M1696.797,1578.67
		c7.492,11.016,14.586,21.442,22.029,32.392c7.131-11.577,12.972-21.066,19.949-32.392
		C1724.208,1578.67,1711.683,1578.67,1696.797,1578.67z M2084.767,1392.931c0,12.844,0,23.375,0,34.702c6.557,0,12.139,0,18.096,0
		c0-12.186,0-23.218,0-34.702C2096.415,1392.931,2091.294,1392.931,2084.767,1392.931z M2112.301,1428.974
		c8.082-0.635,13.674-1.077,19.437-1.529c0-12.113,0-22.627,0-34.187c-6.496,0-12.066,0-18.514,0
		c-0.361,4.183-0.83,7.425-0.885,10.676C2112.214,1411.243,2112.301,1418.553,2112.301,1428.974z M2304.502,1677.779
		c16.735,32.836,16.735,32.836,57.412,27.955C2341.6,1695.844,2325.276,1687.895,2304.502,1677.779z M1917.917,1392.916
		c0,12.842,0,23.38,0,34.717c6.553,0,12.133,0,18.092,0c0-12.189,0-23.213,0-34.717
		C1929.551,1392.916,1924.426,1392.916,1917.917,1392.916z M2170.088,1393.006c0,12.428,0,22.953,0,34.607
		c6.391,0,11.975,0,18.365,0c0-11.791,0-22.813,0-34.607C2182.16,1393.006,2177.024,1393.006,2170.088,1393.006z M1879.442,1428.12
		c0-12.824,0-23.334,0-34.825c-6.492,0-12.059,0-18.241,0c0,12.126,0,23.175,0,34.825
		C1867.597,1428.12,1872.78,1428.12,1879.442,1428.12z M2400.036,1722.178c15.309,34.188,18.714,35.749,55.484,26.787
		C2437.029,1740.044,2420.472,1732.047,2400.036,1722.178z M2118.594,974.883c-13.449-10.414-22.241-17.223-31.997-24.776
		c-7.06,7.957-13.299,14.984-21.988,24.776C2083.766,974.883,2098.104,974.883,2118.594,974.883z M1957.59,1006.695
		c9.388-8.176,16.794-14.632,26.843-23.385c-18.186,0-31.574,0-48.374,0C1944.432,992.405,1950.235,998.707,1957.59,1006.695z
		 M1733.772,1607.769c18.962-9.239,36.244-17.666,56.42-27.497C1762.684,1574.49,1742.5,1576.72,1733.772,1607.769z
		 M2377.968,1613.823c-9.225-12.126-15.849-20.84-23.507-30.907c-7.345,11.299-13.239,20.365-20.094,30.907
		C2349.903,1613.823,2361.78,1613.823,2377.968,1613.823z M1667.97,1716.837c9.756,12.318,16.503,20.829,24.791,31.292
		c7.577-11.559,13.526-20.628,20.519-31.292C1697.62,1716.837,1685.148,1716.837,1667.97,1716.837z M2328.276,1716.863
		c7.244,11.068,13.194,20.161,20.592,31.469c8.454-11.289,15.11-20.17,23.582-31.469
		C2355.672,1716.863,2343.334,1716.863,2328.276,1716.863z M1640.531,1722.871c-19.215,9.305-35.979,17.422-56.871,27.541
		C1626.236,1755.569,1627.114,1755.131,1640.531,1722.871z M2467.528,1817.774c21.248,9.24,38.748,16.852,57.174,24.865
		C2515.063,1815.055,2496.827,1808.79,2467.528,1817.774z M2439.273,1705.041c-8.921-11.526-15.718-20.311-23.321-30.142
		c-7.275,11.459-13.233,20.834-21.101,33.216C2411.429,1706.969,2423.816,1706.11,2439.273,1705.041z M2061.599,375.44
		c-1.601-23.372-15.906-34.547-29.392-45.495c-2.081-1.689-9.749,3.497-15.981,5.961
		C2032.002,349.647,2044.843,360.832,2061.599,375.44z M1986.388,974.774c-7.995-9.662-14.042-16.966-21.019-25.393
		c-9.792,8.484-17.937,15.531-29.318,25.393C1954.667,974.774,1968.388,974.774,1986.388,974.774z M1509.671,1843.136
		c19.907-8.677,36.964-16.109,57.042-24.863C1538.373,1808.274,1521.354,1815.919,1509.671,1843.136z M2038.112,197.921
		c0-10.146,0-18.038,0-26.605c-7.973,0-14.984,0-22.183,0c0,9.529,0,17.911,0,26.605
		C2023.791,197.921,2030.328,197.921,2038.112,197.921z M2003.485,973.536c15.741,0,28.264,0,44.102,0
		c-8.799-10.259-15.203-17.729-22.348-26.066C2017.966,956.185,2011.62,963.789,2003.485,973.536z M1952.832,1016.192
		c-11.472-11.555-18.816-18.954-27.326-27.524c-1.8,11.808-3.419,22.427-5.694,37.38
		C1932.662,1022.21,1941.349,1019.618,1952.832,1016.192z M1670.594,1700.822c19.797-9.429,37.433-17.837,59.956-28.563
		C1686.171,1668.281,1686.171,1668.281,1670.594,1700.822z M1681.885,1752.234c-9.346-11.203-16.638-19.937-25.412-30.445
		c-6.31,11.438-11.033,19.999-16.794,30.445C1653.897,1752.234,1665.685,1752.234,1681.885,1752.234z M2402.17,1752.586
		c-6.671-11.684-11.519-20.174-17.633-30.876c-8.942,11.017-16.138,19.891-25.051,30.876
		C2375.276,1752.586,2387.147,1752.586,2402.17,1752.586z M1618.779,1851.015c-10.3-11.965-17.568-20.404-26.241-30.484
		c-6.356,10.639-11.664,19.513-18.227,30.484C1589.639,1851.015,1601.968,1851.015,1618.779,1851.015z M2460.351,1850.246
		c-6.332-10.639-11.479-19.288-17.866-30.017c-9.278,11.013-16.708,19.832-26.686,31.672c12.349,0,20.255,0.149,28.147-0.059
		C2448.407,1851.721,2452.854,1851.003,2460.351,1850.246z M1651.34,1655.445c36.498,6.592,36.498,6.592,53.245-25.432
		C1685.193,1639.276,1668.269,1647.359,1651.34,1655.445z M2087.452,1020.905c0.283-2.463,0.564-4.919,0.848-7.374
		c-8.578-7.874-17.154-15.748-25.73-23.623c-1.541,0.832-3.084,1.668-4.625,2.497c2.02,9.92,2.141,20.966,7.026,29.184
		C2066.831,1024.71,2079.638,1021.324,2087.452,1020.905z M2253.892,1582.303c15.604,7.271,31.209,14.546,47.817,22.285
		C2297.759,1569.657,2273.995,1579.35,2253.892,1582.303z M2315.104,1673.451c19.141,9.235,35.595,17.182,55.557,26.815
		C2351.594,1666.717,2351.594,1666.717,2315.104,1673.451z M2335.326,1629.288c20.63,35.166,20.846,35.262,54.299,27.66
		C2372.606,1648.276,2356.269,1639.96,2335.326,1629.288z M1695.361,1625.788c-38.619-5.061-38.619-5.061-54.104,26.124
		C1658.756,1643.46,1674.363,1635.926,1695.361,1625.788z M2299.814,1614.195c-20.433-10.293-37.088-18.687-54.841-27.625
		C2255.996,1616.026,2255.996,1616.026,2299.814,1614.195z M1701.66,1659.759c15.154,0,27.211,0,41.546,0
		c-8.848-10.945-15.932-19.71-24.604-30.432C1712.888,1639.59,1708.114,1648.167,1701.66,1659.759z M1741.083,1613.086
		c43.708,4.038,44.348,3.725,53.344-24.445C1777.408,1596.443,1761.987,1603.505,1741.083,1613.086z M2347.06,1627.089
		c19.289,8.542,33.829,14.986,50.911,22.556C2389.254,1622.531,2373.154,1619.094,2347.06,1627.089z M1579.445,1743.64
		c17.786-8.416,34.001-16.085,53.337-25.232C1595.141,1712.699,1595.141,1712.699,1579.445,1743.64z M1960.463,1014.563
		c11.793,4.347,19.498,7.181,28.497,10.5c1.483-14.463,2.519-24.557,3.956-38.527
		C1981.693,996.23,1973.304,1003.472,1960.463,1014.563z M2339.708,1660.235c-6.264-11.111-11.305-20.052-17.284-30.656
		c-8.728,10.919-15.973,19.994-24.499,30.656C2313.146,1660.235,2324.985,1660.235,2339.708,1660.235z M2409.087,1719.536
		c19.229,8.682,35.037,15.827,52.665,23.787C2452.424,1716.368,2436.133,1709.361,2409.087,1719.536z M2016.359,306.076
		c16.122,14.815,28.172,25.888,42.603,39.145c0.677-24.181-18.098-30.457-28.612-42.293
		C2029.023,301.431,2022.432,304.602,2016.359,306.076z M1938.63,920.789c-3.182,17.402-5.639,30.849-8.844,48.396
		c11.809-9.875,20.387-17.048,29.98-25.069C1952.682,936.297,1946.972,929.99,1938.63,920.789z M2036.008,849.287
		c0-12.116,0-23.671,0-35.226c-1.172-0.097-2.342-0.193-3.512-0.286c-1.062,4.512-2.123,9.021-3.722,15.833
		c-4.162-4.826-6.702-7.77-11.255-13.053c0,12.318,0,22.237,0,32.731C2023.305,849.287,2029.28,849.287,2036.008,849.287z
		 M2075.224,983.649c6.327,8.419,12.262,16.313,18.945,25.207c7.731-8.573,14.078-15.606,22.733-25.207
		C2099.293,983.649,2086.382,983.649,2075.224,983.649z M1971.976,943.102c6.699,8.861,11.838,15.654,16.975,22.458
		c1.441-0.703,2.881-1.401,4.321-2.098c0.639-11.996,1.272-23.989,2.068-38.986C1985.614,932.229,1978.379,937.998,1971.976,943.102
		z M2093.685,944.111c9.174,7.813,16.52,14.068,28.362,24.162c-3.663-18.764-6.167-31.588-9.381-48.022
		C2104.92,929.988,2100.07,936.088,2093.685,944.111z M2084.642,734.162c-9.459-8.677-16.391-15.034-24.188-22.185
		c-6.845,7.28-12.401,13.19-20.855,22.185C2056.58,734.162,2068.626,734.162,2084.642,734.162z M1992.313,712.921
		c-6.634,7.411-12.906,14.416-18.638,20.822c11.744,0,23.793,0,35.847,0c0.857-1.456,1.713-2.915,2.569-4.375
		C2005.689,724.043,1999.284,718.715,1992.313,712.921z M2059.737,909.606c15.699,0,28.963,0,46.543,0
		c-11.222-9.035-19.206-15.458-27.734-22.322C2072.052,894.998,2066.651,901.401,2059.737,909.606z M2045.36,791.359
		c16.238,0,28.387,0,43.475,0c-9.337-8.718-16.292-15.217-24.107-22.516C2058.102,776.542,2052.683,782.846,2045.36,791.359z
		 M1895.079,1363.767c-33.484-5.842-33.484-5.842-36.378,21.246C1871.767,1377.386,1883.425,1370.575,1895.079,1363.767z
		 M2190.061,1385.119c-2.292-28.329-3.71-29.198-38.718-23.109C2165.084,1370.211,2176.2,1376.841,2190.061,1385.119z
		 M2006.118,791.695c-6.126-8.175-11.436-15.255-17.428-23.244c-7.99,7.605-15.018,14.287-24.426,23.244
		C1979.465,791.695,1991.241,791.695,2006.118,791.695z M2060.97,969.259c8.367-10.146,13.813-16.742,20.049-24.301
		c-8.134-7.283-15.436-13.813-25.419-22.749C2057.51,938.934,2058.977,951.776,2060.97,969.259z M1881.594,1569.205
		c-8.028-6.585-15.823-12.979-23.616-19.376c-0.888,4.769-3.578,10.084-2.324,14.204
		C1859.212,1575.769,1865.489,1583.915,1881.594,1569.205z M1860.956,1579.616c-11.658-8.309-25.301-20.46-27.07-18.92
		c-15.379,13.337,6.702,17.755,7.221,29.054C1846.603,1586.948,1850.638,1584.883,1860.956,1579.616z M2103.183,860.763
		c-8.269,7.9-13.911,13.29-20.561,19.642c9.194,8.413,16.782,15.354,28.379,25.963
		C2108.011,888.933,2105.92,876.723,2103.183,860.763z M1940.121,907.014c11.961-10.323,19.322-16.67,25.051-21.614
		c-5.767-7.113-10.474-12.914-16.884-20.811C1945.611,878.484,1943.502,889.457,1940.121,907.014z M1947.628,909.156
		c15.737,0,28.219,0,42.934,0c-7.098-7.933-12.32-13.761-18.582-20.753C1964.027,895.178,1957.08,901.1,1947.628,909.156z
		 M1999.824,1026.717c8.871-5.915,14.772-9.847,22.787-15.184c-8.083-8.545-14.046-14.851-22.787-24.091
		C1999.824,1002.745,1999.824,1012.504,1999.824,1026.717z M1964.403,724.707c1.494,0.881,2.988,1.76,4.481,2.641
		c6.404-6.416,12.802-12.834,20.196-20.25c-6.515-7.418-11.612-13.222-18.83-21.436
		C1967.956,700.984,1966.179,712.844,1964.403,724.707z M2016.221,1106.401c2.313-0.972,4.624-1.942,6.938-2.915
		c-2.16-7.301-2.269-16.854-7.086-21.234c-4.389-3.995-13.882-2.383-25.587-3.772
		C2001.982,1090.953,2009.101,1098.676,2016.221,1106.401z M2201.644,1380.929c9.715-7.107,18.275-13.366,29.744-21.754
		c-15.065,0-24.844,0-36.207,0C2197.796,1367.98,2200.015,1375.452,2201.644,1380.929z M1995.703,307.225
		c1.688,1.482,3.378,2.966,5.066,4.446c10.46-7.915,21.155-15.553,31.197-23.966c2.26-1.896,2.245-6.51,3.277-9.867
		c-3.021-0.628-7.538-2.842-8.825-1.63C2015.841,286.187,2005.863,296.802,1995.703,307.225z M1853.698,1359.682
		c-12.717,0-22.21,0-31.421,0c7.656,8.343,14.657,15.979,23.593,25.72C1848.808,1375.745,1851.036,1368.421,1853.698,1359.682z
		 M2161.231,1570.815c19.663,14.077,24.329,1.886,29.044-6.791c1.524-2.809-2.053-8.385-3.297-12.694
		C2179.12,1557.273,2171.267,1563.216,2161.231,1570.815z M2005.144,847.021c1.591-16.031,2.786-28.08,4.368-43.988
		c-9.458,8.266-16.142,14.106-22.854,19.971C1992.698,830.849,1997.622,837.245,2005.144,847.021z M2070.857,827.434
		c-5.884,7.35-10.651,13.303-17.048,21.293c14.769,0,26.275,0,40.945,0C2086.068,840.986,2079.703,835.315,2070.857,827.434z
		 M2073.706,677.31c-18.678-23.956-19.845-23.944-33.634,0C2051.008,677.31,2061.444,677.31,2073.706,677.31z M1869.359,1352.962
		c11.299,0,19.921,0,31.468,0c-9.548-10.035-16.928-17.795-26.392-27.746C1872.337,1336.682,1871.05,1343.725,1869.359,1352.962z
		 M2184.526,1580.614c20.52,14.165,23.975-0.32,29.817-7.375c1.484-1.796-1.78-7.524-2.859-11.442
		C2203.396,1567.442,2195.308,1573.084,2184.526,1580.614z M1846.316,1282.368c9.551,9.054,16.586,15.723,25.144,23.835
		c2.105-8.189,3.927-15.269,6.133-23.835C1866.454,1282.368,1858.417,1282.368,1846.316,1282.368z M2009.401,909.544
		c12.508,0,22.181,0,34.759,0c-7.278-9.269-12.764-16.265-19.135-24.376C2019.315,894.078,2015.038,900.75,2009.401,909.544z
		 M2013.913,746.77c-8.382,7.112-14.246,12.074-20.84,17.669c6.783,8.097,12.436,14.842,20.84,24.871
		C2013.913,773.016,2013.913,761.74,2013.913,746.77z M2065.138,707.566c7.938,7.54,14.12,13.418,20.301,19.291
		c1.075-0.839,2.149-1.678,3.219-2.515c-2.051-11.335-4.103-22.672-6.809-37.6C2075.224,694.996,2070.851,700.446,2065.138,707.566z
		 M2159.701,1252.106c3.097,27.383,3.369,27.565,33.272,22.043C2181.218,1266.36,2170.983,1259.578,2159.701,1252.106z
		 M1958.276,848.095c15.01,0,26.549,0,39.833,0c-6.485-7.422-11.285-12.917-16.726-19.145
		C1973.717,835.3,1966.798,841.032,1958.276,848.095z M1825.224,1349.798c34.032,3.818,34.032,3.818,37.819-23.211
		C1850.934,1334.02,1839.884,1340.797,1825.224,1349.798z M1853.586,1276.045c34.511,1.632,34.511,1.632,34.145-22.866
		C1877.436,1260.073,1867.642,1266.632,1853.586,1276.045z M2066.689,823.431c-8.238-6.677-14.8-11.992-25.63-20.77
		c3.529,16.3,5.755,26.571,8.457,39.058C2056.087,834.722,2060.547,829.974,2066.689,823.431z M2185.734,1326.158
		c4.508,28.701,7.267,30.279,35.082,21.789C2209.3,1340.797,2198.551,1334.116,2185.734,1326.158z M2174.396,1325.344
		c-10.744,11.452-17.702,18.87-27.67,29.496c13.931-0.718,22.437-1.147,32.727-1.677
		C2177.783,1343.984,2176.521,1337.046,2174.396,1325.344z M1966.444,940.045c7.619-7.153,13.754-12.915,21.449-20.135
		c-13.93,0-24.95,0-38.799,0C1955.502,927.349,1960.155,932.745,1966.444,940.045z M2035.251,449.112
		c27.854,2.615,32.474-2.157,27.316-20.152C2054.993,434.549,2045.718,441.39,2035.251,449.112z M2049.935,1027.259
		c0-14.703,0-24.566,0-37.328c-7.503,8.327-13.029,14.468-19.494,21.653C2036.51,1016.464,2041.644,1020.596,2049.935,1027.259z
		 M2085.933,940.194c6.319-7.395,10.945-12.807,17.149-20.063c-13.481,0-24.193,0-35.645,0
		C2073.816,927.053,2079.228,932.92,2085.933,940.194z M1977.857,676.983c15.038,0,25.021,0,38.823,0
		c-7.725-7.236-12.729-11.924-18.49-17.326C1991.852,665.059,1986.566,669.561,1977.857,676.983z M2024.711,165.2
		c1.362-0.016,2.726-0.032,4.088-0.048c0-17.011,0-34.03,0-51.042c-1.362,0.008-2.726,0.013-4.088,0.019
		C2024.711,131.154,2024.711,148.176,2024.711,165.2z M2060.663,1080.469c-25.301-4.78-32.175,1.876-26.734,23.382
		C2042.245,1096.577,2050.562,1089.306,2060.663,1080.469z M2065.847,482.275c1.535-27.87,0.271-28.99-17.172-26.246
		C2052.255,461.507,2058.222,470.626,2065.847,482.275z M2177.277,1304.18c8.296-7.233,15.56-13.566,24.046-20.965
		c-10.811,0-19.516,0-30.34,0C2173.613,1291.973,2175.591,1298.566,2177.277,1304.18z M1987.375,483.034
		c9.324-9.936,17.191-18.319,25.537-27.21C1985.859,454.517,1985.631,454.739,1987.375,483.034z M1991.559,423.658
		c-3.151,25.796,3.313,31.252,23.9,22.854C2008.097,439.474,2000.815,432.509,1991.559,423.658z M2149.59,1257.955
		c-8.01,5.843-15.718,11.459-24.051,17.539c10.432,0,18.638,0,28.163,0C2151.761,1267.227,2150.265,1260.836,2149.59,1257.955z
		 M1896.027,1275.738c9.956,0,17.963,0,25.327,0c-6.684-7.591-12.947-14.723-21.103-23.988
		C1898.548,1261.42,1897.347,1268.255,1896.027,1275.738z M2060.55,486.738c-10.766-9.973-19.269-17.854-28.524-26.431
		C2030.074,485.573,2032.11,487.623,2060.55,486.738z M1999.242,961.045c23.642-15.467,24.058-18.676,4.527-33.883
		C2002.254,938.506,2000.796,949.407,1999.242,961.045z M1917.354,1285.843c-33.06-3.982-33.06-3.982-34.059,20.603
		C1893.969,1299.989,1904.021,1293.91,1917.354,1285.843z"/>
</g>
</svg>
